<?xml version="1.0" encoding="UTF-8" standalone="yes"?>
<svg version="1.2" width="155" height="155" fill-rule="evenodd" baseProfile="tiny-ps" xmlns="http://www.w3.org/2000/svg">
  <title>bimi-svg-tiny-12-ps</title>
  <defs id="defs340"/>
  <g id="g1">
    <path fill="#fefefe" d="m -0.5,-0.5 c 384,0 768,0 1152,0 0,216 0,432 0,648 -384,0 -768,0 -1152,0 0,-179.667 0,-359.333 0,-539 0.813823,2.131 1.313823,4.464 1.5,7 0.6237,2.254 1.95703,3.921 4,5 0.49001,1.293 0.65668,2.627 0.5,4 3.34236,0.512 5.1757,2.512 5.5,6 2.5155,3.367 5.6822,5.7 9.5,7 -0.1162,3.41 1.5504,4.744 5,4 0,1 0,2 0,3 1.052,-0.149 2.052,0.017 3,0.5 1.8419,3.017 4.5086,4.517 8,4.5 1.4899,1.78 3.4899,2.446 6,2 0.0608,2.55 1.3941,4.05 4,4.5 8.2648,0.756 16.4314,1.923 24.5,3.5 8.0686,-1.577 16.2352,-2.744 24.5,-3.5 0.9158,-0.278 1.5825,-0.778 2,-1.5 1.4221,-0.25 2.4221,-1.083 3,-2.5 4.467,0.39 7.801,-1.276 10,-5 1.851,-0.837 3.684,-1.671 5.5,-2.5 0.483,-0.948 0.649,-1.948 0.5,-3 1.808,0.009 3.475,-0.491 5,-1.5 2.794,-2.63 5.461,-5.463 8,-8.5 0.965,-3.273 2.965,-5.606 6,-7 4.243,-6.668 7.743,-13.668 10.5,-21 0.667,-14.6667 0.667,-29.3333 0,-44 -0.71,-1.4733 -1.876,-2.1399 -3.5,-2 -0.047,-3.0682 -0.547,-6.0682 -1.5,-9 -3.045,-5.5175 -6.378,-10.8509 -10,-16 -6.634,-4.8009 -12.8,-10.1342 -18.5,-16 -3.903,-0.4564 -6.903,-2.2897 -9,-5.5 -2.978,-0.696 -5.9781,-1.19596 -9,-1.5 C 93.6398,7.38619 91.9732,6.21952 89.5,6 77.1667,5.33333 64.8333,5.33333 52.5,6 c -4.2359,2.78057 -8.9026,4.4472 -14,5 -2.94,3.3038 -6.6066,5.3038 -11,6 -1.769,2.057 -3.769,3.8903 -6,5.5 -0.8857,0.825 -1.219,1.825 -1,3 -1.7624,0.7623 -2.7624,2.0956 -3,4 -1.3333,0.6667 -2.3333,1.6667 -3,3 -0.6667,0 -1.3333,0 -2,0 -2.2504,1.744 -4.41706,3.744 -6.5,6 -0.49742,2.646 -0.66409,5.3127 -0.5,8 -3.4427,1.3829 -4.942703,4.0495 -4.5,8 -0.382575,0.556 -0.882575,0.8893 -1.5,1 0,-18.6667 0,-37.3333 0,-56 z" id="path1"/>
  </g>
  <g id="g2">
    <path fill="#edf7f1" d="M 94.5,9.5 C 91.4213,7.98047 88.088,7.14713 84.5,7 74.3247,6.17508 64.3247,6.34174 54.5,7.5 c -1.4549,1.63432 -3.1216,2.9676 -5,4 -0.9916,-0.1716 -1.6583,0.1618 -2,1 -3.7485,-0.1934 -7.0818,0.8066 -10,3 -5.0957,1.1359 -9.429,3.4692 -13,7 -0.3333,1 -1,1.6667 -2,2 -0.6667,0.3333 -1.3333,0.6667 -2,1 -0.219,-1.175 0.1143,-2.175 1,-3 2.231,-1.6097 4.231,-3.443 6,-5.5 4.3934,-0.6962 8.06,-2.6962 11,-6 5.0974,-0.5528 9.7641,-2.21943 14,-5 12.3333,-0.66667 24.6667,-0.66667 37,0 2.4732,0.21952 4.1398,1.38619 5,3.5 z" id="path2"/>
  </g>
  <g id="g3">
    <path fill="#add9c1" d="m 64.5,8.5 c 0,-0.33333 0,-0.66667 0,-1 5.3437,-0.16602 10.6771,6.5e-4 16,0.5 1.5581,0.21003 2.8915,0.71003 4,1.5 -2,0 -4,0 -6,0 -4.47,-0.98612 -9.1367,-1.31946 -14,-1 z" id="path3"/>
  </g>
  <g id="g4">
    <path fill="#c0e2cf" d="m 54.5,7.5 c 3.3333,0 6.6667,0 10,0 0,0.33333 0,0.66667 0,1 -2.5593,-0.30155 -4.8926,0.03178 -7,1 -2.5037,1.1392 -5.1703,1.8059 -8,2 1.8784,-1.0324 3.5451,-2.36568 5,-4 z" id="path4"/>
  </g>
  <g id="g5">
    <path fill="#89c9a6" d="m 64.5,8.5 c 4.8633,-0.31946 9.53,0.01388 14,1 -5.3437,-0.16602 -10.6771,6.5e-4 -16,0.5 -1.9913,0.3736 -3.658,1.207 -5,2.5 -1,0 -2,0 -3,0 0.8065,-1.2281 1.8065,-2.2281 3,-3 2.1074,-0.96822 4.4407,-1.30155 7,-1 z" id="path5"/>
  </g>
  <g id="g6">
    <path fill="#5db585" d="m 78.5,9.5 c 1.3333,0.6667 2.6667,1.3333 4,2 -5.9781,-0.9085 -11.9781,-1.0752 -18,-0.5 -0.9158,0.2784 -1.5825,0.7784 -2,1.5 -1.6667,0 -3.3333,0 -5,0 1.342,-1.293 3.0087,-2.1264 5,-2.5 5.3229,-0.49935 10.6563,-0.66602 16,-0.5 z" id="path6"/>
  </g>
  <g id="g7">
    <path fill="#7cc49c" d="m 78.5,9.5 c 2,0 4,0 6,0 1.1935,0.7719 2.1935,1.7719 3,3 -1.9147,0.2845 -3.5813,-0.0489 -5,-1 -1.3333,-0.6667 -2.6667,-1.3333 -4,-2 z" id="path7"/>
  </g>
  <g id="g8">
    <path fill="#d7ede1" d="m 54.5,7.5 c 9.8247,-1.15826 19.8247,-1.32492 30,-0.5 3.588,0.14713 6.9213,0.98047 10,2.5 2.3577,1.6286 5.0243,2.7952 8,3.5 1.323,0.8159 1.989,1.9826 2,3.5 -1.713,-2.3504 -4.047,-3.3504 -7,-3 -4.1674,-1.7931 -8.5007,-3.1265 -13,-4 C 83.3915,8.71003 82.0581,8.21003 80.5,8 75.1771,7.50065 69.8437,7.33398 64.5,7.5 c -3.3333,0 -6.6667,0 -10,0 z" id="path8"/>
  </g>
  <g id="g9">
    <path fill="#abd9bf" d="m 84.5,9.5 c 4.4993,0.8735 8.8326,2.2069 13,4 -3.3333,-0.3333 -6.6667,-0.6667 -10,-1 -0.8065,-1.2281 -1.8065,-2.2281 -3,-3 z" id="path9"/>
  </g>
  <g id="g10">
    <path fill="#a8d7bd" d="m 57.5,9.5 c -1.1935,0.7719 -2.1935,1.7719 -3,3 -0.6667,0 -1.3333,0 -2,0 -1.6667,0 -3.3333,0 -5,0 0.3417,-0.8382 1.0084,-1.1716 2,-1 2.8297,-0.1941 5.4963,-0.8608 8,-2 z" id="path10"/>
  </g>
  <g id="g11">
    <path fill="#4eae79" d="m 82.5,11.5 c 1.4187,0.9511 3.0853,1.2845 5,1 3.3333,0.3333 6.6667,0.6667 10,1 0,0.3333 0,0.6667 0,1 -1,0 -2,0 -3,0 -10.5822,-1.477 -21.2489,-2.1437 -32,-2 0.4175,-0.7216 1.0842,-1.2216 2,-1.5 6.0219,-0.5752 12.0219,-0.4085 18,0.5 z" id="path11"/>
  </g>
  <g id="g12">
    <path fill="#75c197" d="m 47.5,12.5 c 1.6667,0 3.3333,0 5,0 -2.4052,1.2682 -5.0718,1.9349 -8,2 1,-0.6667 2,-1.3333 3,-2 z" id="path12"/>
  </g>
  <g id="g13">
    <path fill="#4aad75" d="m 94.5,14.5 c 1,0 2,0 3,0 1.355,3.0177 3.688,4.351 7,4 1.291,-0.2373 2.291,0.096 3,1 0,0.6667 0,1.3333 0,2 -2.451,-1.3943 -5.118,-2.2276 -8,-2.5 -1.5632,-1.736 -3.2299,-3.236 -5,-4.5 z" id="path13"/>
  </g>
  <g id="g14">
    <path fill="#6fbe92" d="m 97.5,14.5 c 2.1869,1.258 4.52,2.258 7,3 0,0.3333 0,0.6667 0,1 -3.312,0.351 -5.645,-0.9823 -7,-4 z" id="path14"/>
  </g>
  <g id="g15">
    <path fill="#aedbc2" d="m 47.5,12.5 c -1,0.6667 -2,1.3333 -3,2 -2.9534,-0.3504 -5.2867,0.6496 -7,3 0,-0.6667 0,-1.3333 0,-2 2.9182,-2.1934 6.2515,-3.1934 10,-3 z" id="path15"/>
  </g>
  <g id="g16">
    <path fill="#7fc69f" d="m 44.5,14.5 c -2.2637,2.7151 -5.2637,4.2151 -9,4.5 -1.6412,1.129 -2.6412,2.629 -3,4.5 -1.4587,-0.0674 -2.7921,0.2659 -4,1 -2.2541,0.9151 -4.2541,2.2484 -6,4 0,-0.3333 0,-0.6667 0,-1 0,-0.3333 0,-0.6667 0,-1 1.6911,-1.3637 3.3577,-2.697 5,-4 0.6667,0 1.3333,0 2,0 1.3333,-0.6667 2.3333,-1.6667 3,-3 1.3195,-1.4418 2.9862,-2.1085 5,-2 1.7133,-2.3504 4.0466,-3.3504 7,-3 z" id="path16"/>
  </g>
  <g id="g17">
    <path fill="#a1d5b8" d="m 97.5,14.5 c 0,-0.3333 0,-0.6667 0,-1 2.953,-0.3504 5.287,0.6496 7,3 0,0.3333 0,0.6667 0,1 -2.48,-0.742 -4.8131,-1.742 -7,-3 z" id="path17"/>
  </g>
  <g id="g18">
    <path fill="#add9c1" d="m 104.5,18.5 c 0,-0.3333 0,-0.6667 0,-1 1.915,-0.2845 3.581,0.0489 5,1 0,0.3333 0,0.6667 0,1 -0.667,0 -1.333,0 -2,0 -0.709,-0.904 -1.709,-1.2373 -3,-1 z" id="path18"/>
  </g>
  <g id="g19">
    <path fill="#cbe7d8" d="m 37.5,15.5 c 0,0.6667 0,1.3333 0,2 -2.0138,-0.1085 -3.6805,0.5582 -5,2 -2,0 -3,1 -3,3 -0.6667,0 -1.3333,0 -2,0 -1,0 -2,0 -3,0 3.571,-3.5308 7.9043,-5.8641 13,-7 z" id="path19"/>
  </g>
  <g id="g20">
    <path fill="#3ca66a" d="m 79.5,18.5 c 4.9103,-0.9128 8.9103,0.4205 12,4 -1.3333,0 -2.6667,0 -4,0 -2.4649,-1.7841 -5.1316,-3.1174 -8,-4 z" id="path20"/>
  </g>
  <g id="g21">
    <path fill="#199650" d="m 49.5,15.5 c 3.0184,-0.1646 6.0184,0.002 9,0.5 -1.5931,0.9487 -2.9264,2.1154 -4,3.5 -0.1107,0.6174 -0.444,1.1174 -1,1.5 -2.4204,0.2904 -4.7537,0.7904 -7,1.5 -3.4856,0.1644 -5.819,1.831 -7,5 -3.7019,-0.2742 -6.0352,1.3925 -7,5 -1.6788,-0.2148 -2.6788,0.4519 -3,2 -1.5481,0.3212 -2.2148,1.3212 -2,3 -1.788,-0.2852 -3.4547,0.0481 -5,1 -0.6322,2.4647 -2.1322,4.1314 -4.5,5 -0.49,1.2932 -0.6567,2.6266 -0.5,4 -1.8002,0.9734 -3.6335,1.9734 -5.5,3 -0.49,-1.2932 -0.6567,-2.6266 -0.5,-4 5.7232,-8.7261 12.7232,-16.3927 21,-23 2.8112,-3.3502 6.4779,-4.8502 11,-4.5 1.2426,-2.4549 3.2426,-3.6216 6,-3.5 z" id="path21"/>
  </g>
  <g id="g22">
    <path fill="#8bcaa8" d="m 61.5,19.5 c 5.5262,-0.3214 10.8595,0.0119 16,1 -4.0138,-0.1655 -8.0138,0.0012 -12,0.5 -1.2375,0.2321 -2.2375,0.7321 -3,1.5 -1.6667,0 -3.3333,0 -5,0 1.0451,-1.3776 2.3784,-2.3776 4,-3 z" id="path22"/>
  </g>
  <g id="g23">
    <path fill="#a2d5b9" d="m 32.5,19.5 c -0.6667,1.3333 -1.6667,2.3333 -3,3 0,-2 1,-3 3,-3 z" id="path23"/>
  </g>
  <g id="g24">
    <path fill="#4eae79" d="m 79.5,18.5 c -6.19,-0.3229 -12.19,0.0104 -18,1 -1.6216,0.6224 -2.9549,1.6224 -4,3 -3.5781,0.0488 -6.9115,0.7154 -10,2 -1,0 -2,0 -3,0 0.6667,-0.6667 1.3333,-1.3333 2,-2 2.2463,-0.7096 4.5796,-1.2096 7,-1.5 0.556,-0.3826 0.8893,-0.8826 1,-1.5 8.3608,-2.1691 16.6942,-2.5024 25,-1 z" id="path24"/>
  </g>
  <g id="g25">
    <path fill="#a6d7bb" d="m 77.5,20.5 c 1.903,0.2959 3.5697,0.9625 5,2 -6.6667,0 -13.3333,0 -20,0 0.7625,-0.7679 1.7625,-1.2679 3,-1.5 3.9862,-0.4988 7.9862,-0.6655 12,-0.5 z" id="path25"/>
  </g>
  <g id="g26">
    <path fill="#c3e4d1" d="m 109.5,18.5 c 1.373,-0.1567 2.707,0.01 4,0.5 2.321,2.3048 4.321,4.8048 6,7.5 -3.387,-2.3373 -6.72,-4.6707 -10,-7 0,-0.3333 0,-0.6667 0,-1 z" id="path26"/>
  </g>
  <g id="g27">
    <path fill="#47ac74" d="m 52.5,12.5 c 0.6667,0 1.3333,0 2,0 1,0 2,0 3,0 -0.1107,0.6174 -0.444,1.1174 -1,1.5 -2.5356,0.1862 -4.869,0.6862 -7,1.5 -2.7574,-0.1216 -4.7574,1.0451 -6,3.5 -4.5221,-0.3502 -8.1888,1.1498 -11,4.5 0.3588,-1.871 1.3588,-3.371 3,-4.5 3.7363,-0.2849 6.7363,-1.7849 9,-4.5 2.9282,-0.0651 5.5948,-0.7318 8,-2 z" id="path27"/>
  </g>
  <g id="g28">
    <path fill="#6bbc8f" d="m 61.5,19.5 c 5.81,-0.9896 11.81,-1.3229 18,-1 2.8684,0.8826 5.5351,2.2159 8,4 -1.6667,0 -3.3333,0 -5,0 -1.4303,-1.0375 -3.097,-1.7041 -5,-2 -5.1405,-0.9881 -10.4738,-1.3214 -16,-1 z" id="path28"/>
  </g>
  <g id="g29">
    <path fill="#83c6a1" d="m 107.5,19.5 c 0.667,0 1.333,0 2,0 3.28,2.3293 6.613,4.6627 10,7 0.806,1.2281 1.806,2.2281 3,3 -1,0 -2,0 -3,0 -3.097,-3.3884 -6.764,-6.0551 -11,-8 -0.333,0 -0.667,0 -1,0 0,-0.6667 0,-1.3333 0,-2 z" id="path29"/>
  </g>
  <g id="g30">
    <path fill="#cce8d8" d="m 57.5,22.5 c 1.6667,0 3.3333,0 5,0 6.6667,0 13.3333,0 20,0 0.4175,0.7216 1.0842,1.2216 2,1.5 2.646,0.4974 5.3127,0.6641 8,0.5 0,0.6667 0,1.3333 0,2 -0.6667,0 -1.3333,0 -2,0 -0.3333,0 -0.6667,0 -1,0 -3.4968,-0.9025 -7.1634,-1.5691 -11,-2 -6.8507,-1.194 -13.8507,-1.194 -21,0 0,-0.6667 0,-1.3333 0,-2 z" id="path30"/>
  </g>
  <g id="g31">
    <path fill="#b3dcc6" d="m 24.5,22.5 c 1,0 2,0 3,0 -1.6423,1.303 -3.3089,2.6363 -5,4 0,-0.6667 0,-1.3333 0,-2 1,-0.3333 1.6667,-1 2,-2 z" id="path31"/>
  </g>
  <g id="g32">
    <path fill="#ddf0e6" d="m 78.5,24.5 c -9.0022,0.2859 -18.0022,0.6192 -27,1 1.7646,-0.9614 3.7646,-1.2947 6,-1 7.1493,-1.194 14.1493,-1.194 21,0 z" id="path32"/>
  </g>
  <g id="g33">
    <path fill="#a0d4b7" d="m 82.5,22.5 c 1.6667,0 3.3333,0 5,0 1.6667,0.6667 3.3333,1.3333 5,2 -2.6873,0.1641 -5.354,-0.0026 -8,-0.5 -0.9158,-0.2784 -1.5825,-0.7784 -2,-1.5 z" id="path33"/>
  </g>
  <g id="g34">
    <path fill="#3ca66a" d="m 108.5,21.5 c 4.236,1.9449 7.903,4.6116 11,8 0,0.3333 0,0.6667 0,1 -5.198,-1.2034 -8.864,-4.2034 -11,-9 z" id="path34"/>
  </g>
  <g id="g35">
    <path fill="#3ba56a" d="m 46.5,22.5 c -0.6667,0.6667 -1.3333,1.3333 -2,2 -0.9006,2.2271 -2.5672,3.2271 -5,3 1.181,-3.169 3.5144,-4.8356 7,-5 z" id="path35"/>
  </g>
  <g id="g36">
    <path fill="#f2f9f5" d="m 78.5,24.5 c 3.8366,0.4309 7.5032,1.0975 11,2 -12.6667,0 -25.3333,0 -38,0 0,-0.3333 0,-0.6667 0,-1 8.9978,-0.3808 17.9978,-0.7141 27,-1 z" id="path36"/>
  </g>
  <g id="g37">
    <path fill="#b7dfc9" d="m 92.5,24.5 c 2.4798,0.742 4.8131,1.742 7,3 1.761,0.8127 3.428,1.8127 5,3 0.271,1.9305 1.271,3.2638 3,4 -1,0 -2,0 -3,0 -0.408,-1.1431 -1.075,-2.1431 -2,-3 -3.3986,-1.6789 -6.7319,-3.3456 -10,-5 0,-0.6667 0,-1.3333 0,-2 z" id="path37"/>
  </g>
  <g id="g38">
    <path fill="#d6ece0" d="m 22.5,24.5 c 0,0.6667 0,1.3333 0,2 0,0.3333 0,0.6667 0,1 -1.6788,-0.2148 -2.6788,0.4519 -3,2 -0.6667,0 -1.3333,0 -2,0 0.2376,-1.9044 1.2376,-3.2377 3,-4 0.6667,-0.3333 1.3333,-0.6667 2,-1 z" id="path38"/>
  </g>
  <g id="g39">
    <path fill="#a9d8be" d="m 57.5,22.5 c 0,0.6667 0,1.3333 0,2 -2.2354,-0.2947 -4.2354,0.0386 -6,1 -2.0582,1.4331 -4.3915,2.0997 -7,2 0.8065,-1.2281 1.8065,-2.2281 3,-3 3.0885,-1.2846 6.4219,-1.9512 10,-2 z" id="path39"/>
  </g>
  <g id="g40">
    <path fill="#fefefe" d="m 51.5,26.5 c 12.6667,0 25.3333,0 38,0 0.3333,0 0.6667,0 1,0 1.6446,3.8316 4.6446,5.6649 9,5.5 0.873,1.045 1.873,1.8783 3,2.5 1.594,1.483 3.26,2.983 5,4.5 -24.3402,0.8331 -48.6735,0.6665 -73,-0.5 2.1754,-2.7789 4.842,-4.9456 8,-6.5 2.4519,-0.2895 4.7852,-0.9562 7,-2 0.7524,-0.6708 1.0858,-1.5041 1,-2.5 0,-0.6667 0.3333,-1 1,-1 z" id="path40"/>
  </g>
  <g id="g41">
    <path fill="#6ebd91" d="m 87.5,22.5 c 1.3333,0 2.6667,0 4,0 4.2997,-0.7012 6.9664,0.9655 8,5 -2.1869,-1.258 -4.5202,-2.258 -7,-3 -1.6667,-0.6667 -3.3333,-1.3333 -5,-2 z" id="path41"/>
  </g>
  <g id="g42">
    <path fill="#a6d6bb" d="m 22.5,27.5 c 0,0.3333 0,0.6667 0,1 -1.109,0.0569 -2.109,0.3902 -3,1 0.3212,-1.5481 1.3212,-2.2148 3,-2 z" id="path42"/>
  </g>
  <g id="g43">
    <path fill="#5eb685" d="m 99.5,27.5 c 4.55,-0.3926 7.883,1.274 10,5 -1.667,-0.6667 -3.333,-1.3333 -5,-2 -1.572,-1.1873 -3.239,-2.1873 -5,-3 z" id="path43"/>
  </g>
  <g id="g44">
    <path fill="#d0e9db" d="m 119.5,26.5 c 3.991,-0.0791 6.324,1.9209 7,6 -0.667,0 -1.333,0 -2,0 0.073,-1.5269 -0.594,-2.5269 -2,-3 -1.194,-0.7719 -2.194,-1.7719 -3,-3 z" id="path44"/>
  </g>
  <g id="g45">
    <path fill="#57b280" d="m 28.5,24.5 c -2.6667,3.3333 -5.6667,6.3333 -9,9 0,-1.3333 0,-2.6667 0,-4 0.891,-0.6098 1.891,-0.9431 3,-1 1.7459,-1.7516 3.7459,-3.0849 6,-4 z" id="path45"/>
  </g>
  <g id="g46">
    <path fill="#53b17c" d="m 39.5,27.5 c -2.3515,1.6916 -4.6848,3.3583 -7,5 0.9648,-3.6075 3.2981,-5.2742 7,-5 z" id="path46"/>
  </g>
  <g id="g47">
    <path fill="#d5ecdf" d="m 51.5,25.5 c 0,0.3333 0,0.6667 0,1 -0.6667,0 -1,0.3333 -1,1 -4.6869,1.2535 -9.0202,3.2535 -13,6 0.0106,-1.5174 0.6772,-2.6841 2,-3.5 1.9913,-0.3736 3.658,-1.207 5,-2.5 2.6085,0.0997 4.9418,-0.5669 7,-2 z" id="path47"/>
  </g>
  <g id="g48">
    <path fill="#1e9854" d="m 57.5,12.5 c 1.6667,0 3.3333,0 5,0 10.7511,-0.1437 21.4178,0.523 32,2 1.7701,1.264 3.4368,2.764 5,4.5 2.882,0.2724 5.549,1.1057 8,2.5 0.333,0 0.667,0 1,0 2.136,4.7966 5.802,7.7966 11,9 1.997,2.013 3.664,4.3463 5,7 -1.333,0 -2.667,0 -4,0 0.129,1.7161 0.462,3.3828 1,5 -0.667,0 -1.333,0 -2,0 0,-1.6667 0,-3.3333 0,-5 -1,0 -2,0 -3,0 -0.667,0 -1.333,0 -2,0 0,-3.3333 -1.667,-5 -5,-5 -2.117,-3.726 -5.45,-5.3926 -10,-5 -1.0336,-4.0345 -3.7003,-5.7012 -8,-5 -3.0897,-3.5795 -7.0897,-4.9128 -12,-4 -8.3058,-1.5024 -16.6392,-1.1691 -25,1 1.0736,-1.3846 2.4069,-2.5513 4,-3.5 -2.9816,-0.498 -5.9816,-0.6646 -9,-0.5 2.131,-0.8138 4.4644,-1.3138 7,-1.5 0.556,-0.3826 0.8893,-0.8826 1,-1.5 z" id="path48"/>
  </g>
  <g id="g49">
    <path fill="#0a9046" d="m 87.5,17.5 c 2.1282,-1.1291 4.4615,-1.2958 7,-0.5 1.41,0.3678 2.41,1.2011 3,2.5 -3.8698,1.6411 -7.2031,0.9745 -10,-2 z" id="path49"/>
  </g>
  <g id="g50">
    <path fill="#eaf5ef" d="m 90.5,26.5 c 0.6667,0 1.3333,0 2,0 3.2681,1.6544 6.6014,3.3211 10,5 0.925,0.8569 1.592,1.8569 2,3 -0.667,0 -1.333,0 -2,0 -1.127,-0.6217 -2.127,-1.455 -3,-2.5 -4.3554,0.1649 -7.3554,-1.6684 -9,-5.5 z" id="path50"/>
  </g>
  <g id="g51">
    <path fill="#d1eadc" d="m 17.5,29.5 c 0,1 0,2 0,3 -1,0 -2,0 -3,0 0.6667,-1.3333 1.6667,-2.3333 3,-3 z" id="path51"/>
  </g>
  <g id="g52">
    <path fill="#93cead" d="m 44.5,24.5 c 1,0 2,0 3,0 -1.1935,0.7719 -2.1935,1.7719 -3,3 -1.342,1.293 -3.0087,2.1264 -5,2.5 -1.3228,0.8159 -1.9894,1.9826 -2,3.5 -0.3333,0 -0.6667,0 -1,0 -1.6789,0.3923 -3.3455,0.8923 -5,1.5 -1.9305,2.9457 -4.2639,5.4457 -7,7.5 -0.3333,0 -0.6667,0 -1,0 -0.219,-1.175 0.1143,-2.175 1,-3 1.2387,-0.4424 2.2387,-1.1091 3,-2 0.9013,-0.7905 1.5679,-1.7905 2,-3 1.2095,-0.4321 2.2095,-1.0987 3,-2 2.3152,-1.6417 4.6485,-3.3084 7,-5 2.4328,0.2271 4.0994,-0.7729 5,-3 z" id="path52"/>
  </g>
  <g id="g53">
    <path fill="#8dcba8" d="m 104.5,30.5 c 1.667,0.6667 3.333,1.3333 5,2 2.055,1.0588 3.389,2.7254 4,5 -2.017,-1.0294 -4.017,-2.0294 -6,-3 -1.729,-0.7362 -2.729,-2.0695 -3,-4 z" id="path53"/>
  </g>
  <g id="g54">
    <path fill="#97d0b0" d="m 122.5,29.5 c 1.406,0.4731 2.073,1.4731 2,3 -1.548,-0.3212 -2.215,-1.3212 -2,-3 z" id="path54"/>
  </g>
  <g id="g55">
    <path fill="#abd8bf" d="m 14.5,32.5 c 1,0 2,0 3,0 -0.7905,0.9013 -1.7905,1.5679 -3,2 0,-0.6667 0,-1.3333 0,-2 z" id="path55"/>
  </g>
  <g id="g56">
    <path fill="#55b17f" d="m 32.5,32.5 c -0.7905,0.9013 -1.7905,1.5679 -3,2 0.3212,-1.5481 1.3212,-2.2148 3,-2 z" id="path56"/>
  </g>
  <g id="g57">
    <path fill="#55b07e" d="m 109.5,32.5 c 3.333,0 5,1.6667 5,5 -0.333,0 -0.667,0 -1,0 -0.611,-2.2746 -1.945,-3.9412 -4,-5 z" id="path57"/>
  </g>
  <g id="g58">
    <path fill="#eff7f3" d="m 12.5,32.5 c -1.258,2.1869 -2.258,4.5202 -3,7 -1.75605,1.0521 -2.42271,2.7188 -2,5 -0.66667,0.6667 -1.33333,1.3333 -2,2 -0.16409,-2.6873 0.00258,-5.354 0.5,-8 2.08294,-2.256 4.2496,-4.256 6.5,-6 z" id="path58"/>
  </g>
  <g id="g59">
    <path fill="#9ad1b2" d="m 124.5,32.5 c 0.667,0 1.333,0 2,0 0.333,0.6667 0.667,1.3333 1,2 -1,0 -2,0 -3,0 0,-0.6667 0,-1.3333 0,-2 z" id="path59"/>
  </g>
  <g id="g60">
    <path fill="#82c59f" d="m 17.5,29.5 c 0.6667,0 1.3333,0 2,0 0,1.3333 0,2.6667 0,4 -0.6667,0.3333 -1.3333,0.6667 -2,1 -1.3333,1 -2.6667,2 -4,3 -0.2373,-1.291 0.096,-2.291 1,-3 1.2095,-0.4321 2.2095,-1.0987 3,-2 0,-1 0,-2 0,-3 z" id="path60"/>
  </g>
  <g id="g61">
    <path fill="#5ab482" d="m 29.5,34.5 c -0.4321,1.2095 -1.0987,2.2095 -2,3 -0.2148,-1.6788 0.4519,-2.6788 2,-3 z" id="path61"/>
  </g>
  <g id="g62">
    <path fill="#6fbe92" d="m 124.5,34.5 c 1,0 2,0 3,0 0,1 0,2 0,3 -1.333,-0.6667 -2.333,-1.6667 -3,-3 z" id="path62"/>
  </g>
  <g id="g63">
    <path fill="#d3ebde" d="m 12.5,32.5 c 0.6667,0 1.3333,0 2,0 0,0.6667 0,1.3333 0,2 -0.904,0.709 -1.2373,1.709 -1,3 -0.3333,0 -0.6667,0 -1,0 -1,0.6667 -2,1.3333 -3,2 0.742,-2.4798 1.742,-4.8131 3,-7 z" id="path63"/>
  </g>
  <g id="g64">
    <path fill="#4bad77" d="m 119.5,29.5 c 1,0 2,0 3,0 -0.215,1.6788 0.452,2.6788 2,3 0,0.6667 0,1.3333 0,2 0.667,1.3333 1.667,2.3333 3,3 0.667,0.6667 1.333,1.3333 2,2 -0.108,2.0138 0.558,3.6805 2,5 -0.739,0.131 -1.406,-0.0357 -2,-0.5 -1.227,-2.5617 -2.894,-4.7284 -5,-6.5 -1.336,-2.6537 -3.003,-4.987 -5,-7 0,-0.3333 0,-0.6667 0,-1 z" id="path64"/>
  </g>
  <g id="g65">
    <path fill="#36a366" d="m 32.5,23.5 c -8.2768,6.6073 -15.2768,14.2739 -21,23 -1.1578,3.8348 -3.49109,6.8348 -7,9 2.61511,-3.5684 4.44844,-7.5684 5.5,-12 0.6708,-0.7524 1.5041,-1.0858 2.5,-1 1.6278,-2.6412 3.2944,-5.3079 5,-8 0.6667,-0.3333 1.3333,-0.6667 2,-1 3.3333,-2.6667 6.3333,-5.6667 9,-9 1.2079,-0.7341 2.5413,-1.0674 4,-1 z" id="path65"/>
  </g>
  <g id="g66">
    <path fill="#c5e5d3" d="m 126.5,32.5 c 1.175,-0.219 2.175,0.1143 3,1 1.257,2.1789 2.757,4.1789 4.5,6 4.073,8.2408 7.739,16.5741 11,25 1.1,13.112 0.433,26.112 -2,39 -1.626,1.455 -2.792,3.122 -3.5,5 0.53,-3.182 1.53,-6.182 3,-9 0.954,-10.6152 1.287,-21.2819 1,-32 0.723,-3.8896 -0.61,-6.5563 -4,-8 0.09,-2.6522 -0.576,-4.9855 -2,-7 -1.729,-3.1005 -3.062,-6.4338 -4,-10 -1.622,-2.9549 -3.622,-5.6215 -6,-8 -0.333,-0.6667 -0.667,-1.3333 -1,-2 z" id="path66"/>
  </g>
  <g id="g67">
    <path fill="#63b889" d="m 17.5,34.5 c -1.7056,2.6921 -3.3722,5.3588 -5,8 0,-1 0,-2 0,-3 0,-0.6667 0,-1.3333 0,-2 0.3333,0 0.6667,0 1,0 1.3333,-1 2.6667,-2 4,-3 z" id="path67"/>
  </g>
  <g id="g68">
    <path fill="#b5ddc7" d="m 107.5,34.5 c 1.983,0.9706 3.983,1.9706 6,3 0.333,0 0.667,0 1,0 0,0.6667 0,1.3333 0,2 -2.87,-0.9333 -5.204,-2.6 -7,-5 z" id="path68"/>
  </g>
  <g id="g69">
    <path fill="#3ea66a" d="m 116.5,37.5 c 1,0 2,0 3,0 0,1.6667 0,3.3333 0,5 -0.333,0 -0.667,0 -1,0 0.108,-2.0138 -0.558,-3.6805 -2,-5 z" id="path69"/>
  </g>
  <g id="g70">
    <path fill="#a7d8bd" d="m 127.5,34.5 c 2.378,2.3785 4.378,5.0451 6,8 -1.53,-0.7112 -2.863,-1.7112 -4,-3 -0.667,-0.6667 -1.333,-1.3333 -2,-2 0,-1 0,-2 0,-3 z" id="path70"/>
  </g>
  <g id="g71">
    <path fill="#f4f7f6" d="m 50.5,27.5 c 0.0858,0.9959 -0.2476,1.8292 -1,2.5 -2.2148,1.0438 -4.5481,1.7105 -7,2 -3.158,1.5544 -5.8246,3.7211 -8,6.5 24.3265,1.1665 48.6598,1.3331 73,0.5 -1.74,-1.517 -3.406,-3.017 -5,-4.5 0.667,0 1.333,0 2,0 2.306,1.6394 4.306,3.6394 6,6 -25.6688,-0.1666 -51.3355,0 -77,0.5 -0.556,0.3826 -0.8893,0.8826 -1,1.5 -1,0 -2,0 -3,0 1.8783,-3.2289 4.2117,-6.2289 7,-9 0.3333,0 0.6667,0 1,0 3.9798,-2.7465 8.3131,-4.7465 13,-6 z" id="path71"/>
  </g>
  <g id="g72">
    <path fill="#b5dec7" d="m 12.5,37.5 c 0,0.6667 0,1.3333 0,2 -2.0273,1.3606 -3.694,3.0273 -5,5 -0.42271,-2.2812 0.24395,-3.9479 2,-5 1,-0.6667 2,-1.3333 3,-2 z" id="path72"/>
  </g>
  <g id="g73">
    <path fill="#e2e3e5" d="m 110.5,40.5 c 1,0.3333 1.667,1 2,2 -1.667,0 -3.333,0 -5,0 -25,0 -50,0 -75,0 0.1107,-0.6174 0.444,-1.1174 1,-1.5 25.6645,-0.5 51.3312,-0.6666 77,-0.5 z" id="path73"/>
  </g>
  <g id="g74">
    <path fill="#7ac199" d="m 114.5,37.5 c 0.667,0 1.333,0 2,0 1.442,1.3195 2.108,2.9862 2,5 -1.333,-1 -2.667,-2 -4,-3 0,-0.6667 0,-1.3333 0,-2 z" id="path74"/>
  </g>
  <g id="g75">
    <path fill="#3fa66b" d="m 27.5,37.5 c -0.7613,0.8909 -1.7613,1.5576 -3,2 -0.8857,0.825 -1.219,1.825 -1,3 -0.3333,0 -0.6667,0 -1,0 -2.7228,0.7224 -4.3894,2.389 -5,5 -0.1567,-1.3734 0.01,-2.7068 0.5,-4 2.3678,-0.8686 3.8678,-2.5353 4.5,-5 1.5453,-0.9519 3.212,-1.2852 5,-1 z" id="path75"/>
  </g>
  <g id="g76">
    <path fill="#7fc59e" d="m 129.5,39.5 c 1.137,1.2888 2.47,2.2888 4,3 0.938,3.5662 2.271,6.8995 4,10 -0.333,0 -0.667,0 -1,0 -0.432,-1.2095 -1.099,-2.2095 -2,-3 -0.667,-0.3333 -1.333,-0.6667 -2,-1 0.268,-1.599 -0.066,-2.9324 -1,-4 -1.442,-1.3195 -2.108,-2.9862 -2,-5 z" id="path76"/>
  </g>
  <g id="g77">
    <path fill="#92989e" d="m 32.5,42.5 c 25,0 50,0 75,0 0,0.6667 0,1.3333 0,2 -24.3333,0 -48.6667,0 -73,0 -0.6667,0 -1.3333,0 -2,0 0,-0.6667 0,-1.3333 0,-2 z" id="path77"/>
  </g>
  <g id="g78">
    <path fill="#d8ece1" d="m 104.5,34.5 c 1,0 2,0 3,0 1.796,2.4 4.13,4.0667 7,5 2.402,3.0742 4.402,6.4075 6,10 -1.527,0.073 -2.527,-0.5937 -3,-2 -0.667,-2.6667 -2.333,-4.3333 -5,-5 -0.333,-1 -1,-1.6667 -2,-2 -1.694,-2.3606 -3.694,-4.3606 -6,-6 z" id="path78"/>
  </g>
  <g id="g79">
    <path fill="#199650" d="m 124.5,37.5 c 2.106,1.7716 3.773,3.9383 5,6.5 0.594,0.4643 1.261,0.631 2,0.5 0.934,1.0676 1.268,2.401 1,4 0.036,3.6999 1.703,6.3665 5,8 0,0.3333 0,0.6667 0,1 0,1.6667 0,3.3333 0,5 0.023,4.0417 1.189,7.7084 3.5,11 0.706,6.3699 0.539,12.7033 -0.5,19 -0.333,0 -0.667,0 -1,0 -0.996,-0.0858 -1.829,0.2476 -2.5,1 0.979,1.7785 0.646,3.4452 -1,5 -0.333,-10.3333 -0.667,-20.6667 -1,-31 -0.333,-1.3333 -0.667,-2.6667 -1,-4 -0.671,-0.7524 -1.504,-1.0858 -2.5,-1 -0.667,0 -1.333,0 -2,0 0,-2.6667 0,-5.3333 0,-8 -1.701,-4.7631 -4.368,-8.7631 -8,-12 -0.538,-1.6172 -0.871,-3.2839 -1,-5 1.333,0 2.667,0 4,0 z" id="path79"/>
  </g>
  <g id="g80">
    <path fill="#ced3d4" d="m 29.5,42.5 c 1,0 2,0 3,0 0,0.6667 0,1.3333 0,2 -2,0 -3,1 -3,3 -0.6667,0 -1.3333,0 -2,0 0,-1.3333 0,-2.6667 0,-4 0.6667,-0.3333 1.3333,-0.6667 2,-1 z" id="path80"/>
  </g>
  <g id="g81">
    <path fill="#414b55" d="m 34.5,45.5 c 0,-0.3333 0,-0.6667 0,-1 24.3333,0 48.6667,0 73,0 0,0.6667 0,1.3333 0,2 -0.333,0 -0.667,0 -1,0 -23.8275,-0.9976 -47.8275,-1.3309 -72,-1 z" id="path81"/>
  </g>
  <g id="g82">
    <path fill="#65b88a" d="m 22.5,42.5 c 0,0.6667 0,1.3333 0,2 -2,0 -3,1 -3,3 0,0.6667 0,1.3333 0,2 -0.6667,1 -1.3333,2 -2,3 0,-1 0,-2 0,-3 0,-0.6667 0,-1.3333 0,-2 0.6106,-2.611 2.2772,-4.2776 5,-5 z" id="path82"/>
  </g>
  <g id="g83">
    <path fill="#83c7a1" d="m 22.5,44.5 c -0.6667,1.3333 -1.6667,2.3333 -3,3 0,-2 1,-3 3,-3 z" id="path83"/>
  </g>
  <g id="g84">
    <path fill="#2a3541" d="m 34.5,45.5 c 24.1725,-0.3309 48.1725,0.0024 72,1 -24.0747,-0.3229 -48.0747,0.0105 -72,1 0,-0.6667 0,-1.3333 0,-2 z" id="path84"/>
  </g>
  <g id="g85">
    <path fill="#6b737b" d="m 107.5,44.5 c 0.667,0 1.333,0 2,0 0,0.6667 0,1.3333 0,2 -0.667,0 -1.333,0 -2,0 0,-0.6667 0,-1.3333 0,-2 z" id="path85"/>
  </g>
  <g id="g86">
    <path fill="#c1c5c7" d="m 107.5,42.5 c 1.667,0 3.333,0 5,0 0.801,1.5418 1.134,3.2085 1,5 -1.137,-1.2888 -2.47,-2.2888 -4,-3 -0.667,0 -1.333,0 -2,0 0,-0.6667 0,-1.3333 0,-2 z" id="path86"/>
  </g>
  <g id="g87">
    <path fill="#b1dbc4" d="m 114.5,39.5 c 1.333,1 2.667,2 4,3 0.333,0 0.667,0 1,0 0,0.6667 0,1.3333 0,2 0.575,1.9113 1.575,3.578 3,5 -0.667,0 -1.333,0 -2,0 -1.598,-3.5925 -3.598,-6.9258 -6,-10 z" id="path87"/>
  </g>
  <g id="g88">
    <path fill="#82c6a0" d="m 119.5,44.5 c 3.607,1.3452 5.274,4.0119 5,8 -0.667,-1 -1.333,-2 -2,-3 -1.425,-1.422 -2.425,-3.0887 -3,-5 z" id="path88"/>
  </g>
  <g id="g89">
    <path fill="#a6d6bc" d="m 22.5,42.5 c 0.3333,0 0.6667,0 1,0 0.3333,0 0.6667,0 1,0 -0.5102,3.1743 -2.1769,5.5077 -5,7 0,-0.6667 0,-1.3333 0,-2 1.3333,-0.6667 2.3333,-1.6667 3,-3 0,-0.6667 0,-1.3333 0,-2 z" id="path89"/>
  </g>
  <g id="g90">
    <path fill="#d1e9dc" d="m 36.5,33.5 c -2.7883,2.7711 -5.1217,5.7711 -7,9 -0.6667,0.3333 -1.3333,0.6667 -2,1 -1.7624,0.7623 -2.7624,2.0956 -3,4 -1.6667,2 -3.3333,4 -5,6 0,-1.3333 0,-2.6667 0,-4 2.8231,-1.4923 4.4898,-3.8257 5,-7 2.7361,-2.0543 5.0695,-4.5543 7,-7.5 1.6545,-0.6077 3.3211,-1.1077 5,-1.5 z" id="path90"/>
  </g>
  <g id="g91">
    <path fill="#a1a6ac" d="m 32.5,44.5 c -0.6667,1.3333 -1.6667,2.3333 -3,3 0,-2 1,-3 3,-3 z" id="path91"/>
  </g>
  <g id="g92">
    <path fill="#39a469" d="m 119.5,42.5 c 0.667,0 1.333,0 2,0 3.632,3.2369 6.299,7.2369 8,12 -1.32,-1.4418 -2.986,-2.1085 -5,-2 0.274,-3.9881 -1.393,-6.6548 -5,-8 0,-0.6667 0,-1.3333 0,-2 z" id="path92"/>
  </g>
  <g id="g93">
    <path fill="#a8d8bd" d="m 7.5,47.5 c -0.47306,1.4063 -1.47306,2.073 -3,2 0.47306,-1.4063 1.47306,-2.073 3,-2 z" id="path93"/>
  </g>
  <g id="g94">
    <path fill="#7cc39b" d="m 12.5,39.5 c 0,1 0,2 0,3 -0.9959,-0.0858 -1.8292,0.2476 -2.5,1 -1.05156,4.4316 -2.88489,8.4316 -5.5,12 0,0.3333 0,0.6667 0,1 -0.66667,1 -1.33333,2 -2,3 0,-0.6667 0,-1.3333 0,-2 0,-1 0,-2 0,-3 1.43127,-1.2804 2.09794,-2.9471 2,-5 1.52694,0.073 2.52694,-0.5937 3,-2 0,-1 0,-2 0,-3 1.306,-1.9727 2.9727,-3.6394 5,-5 z" id="path94"/>
  </g>
  <g id="g95">
    <path fill="#e9ebec" d="m 27.5,43.5 c 0,1.3333 0,2.6667 0,4 0,18.3333 0,36.6667 0,55 -1.6626,-18.1439 -2.6626,-36.4772 -3,-55 0.2376,-1.9044 1.2376,-3.2377 3,-4 z" id="path95"/>
  </g>
  <g id="g96">
    <path fill="#fcfdfd" d="m 24.5,47.5 c 0.3374,18.5228 1.3374,36.8561 3,55 0.2329,1.562 0.8995,2.895 2,4 0.7899,1.294 1.7899,2.461 3,3.5 4.9889,0.499 9.9889,0.666 15,0.5 -0.455,1.867 -1.1216,3.7 -2,5.5 -0.1134,1.699 0.5532,2.866 2,3.5 1.5938,1.483 3.2605,2.983 5,4.5 12.3468,0.833 24.6802,0.666 37,-0.5 1.9219,-1.211 3.7552,-2.544 5.5,-4 0.7891,-2.212 0.6225,-4.212 -0.5,-6 0,-0.333 0,-0.667 0,-1 4.5675,-1.785 9.567,-2.618 15,-2.5 1.918,-2.731 3.918,-5.231 6,-7.5 0.832,-17.4953 1.332,-35.1619 1.5,-53 2.357,3.7839 4.857,7.4506 7.5,11 0.67,7.0669 1.67,14.0669 3,21 -1.385,7.6114 -2.385,15.2781 -3,23 -0.331,1.822 -0.998,3.489 -2,5 0,1 0,2 0,3 -3.537,0.886 -5.204,3.219 -5,7 0,0.333 0,0.667 0,1 -1.527,-0.073 -2.527,0.594 -3,2 -0.667,0 -1.333,0 -2,0 -1.526,0.605 -2.526,1.771 -3,3.5 -3.47,2.147 -7.137,3.813 -11,5 -1.3721,1.242 -2.3721,2.742 -3,4.5 -2.1309,0.669 -4.1309,1.335 -6,2 -3.6817,0.055 -7.015,1.055 -10,3 -5.0111,0.166 -10.0111,-0.001 -15,-0.5 -3.7055,-1.985 -7.7055,-2.818 -12,-2.5 -4.1701,-3.132 -8.8367,-5.465 -14,-7 -2.2726,-1.267 -4.2726,-2.933 -6,-5 -4.1288,-2.896 -6.7955,-6.896 -8,-12 -0.825,-0.886 -1.825,-1.219 -3,-1 0.1602,-1.699 -0.0065,-3.366 -0.5,-5 -2.1485,-1.477 -3.4818,-3.477 -4,-6 -0.3542,-6.563 -1.1875,-13.063 -2.5,-19.5 1.362,-5.758 2.0287,-11.5913 2,-17.5 0.4493,-3.5476 1.4493,-6.881 3,-10 0,-0.3333 0,-0.6667 0,-1 1.6667,-2 3.3333,-4 5,-6 z" id="path96"/>
  </g>
  <g id="g97">
    <path fill="#daeee3" d="m 7.5,44.5 c 0,1 0,2 0,3 -1.52694,-0.073 -2.52694,0.5937 -3,2 -1.43127,1.2804 -2.09794,2.9471 -2,5 0,1 0,2 0,3 -1,0.6667 -2,1.3333 -3,2 0,-1.3333 0,-2.6667 0,-4 0.617425,-0.1107 1.117425,-0.444 1.5,-1 -0.442703,-3.9505 1.0573,-6.6171 4.5,-8 0.66667,-0.6667 1.33333,-1.3333 2,-2 z" id="path97"/>
  </g>
  <g id="g98">
    <path fill="#4d555f" d="m 34.5,45.5 c 0,0.6667 0,1.3333 0,2 -0.9511,1.4187 -1.2845,3.0853 -1,5 -0.9964,15.8246 -1.3297,31.8246 -1,48 -0.3333,0 -0.6667,0 -1,0 -0.3062,-17.7136 0.0271,-35.3802 1,-53 0.3333,-1 1,-1.6667 2,-2 z" id="path98"/>
  </g>
  <g id="g99">
    <path fill="#3ca66b" d="m 132.5,48.5 c 0.667,0.3333 1.333,0.6667 2,1 -0.215,1.6788 0.452,2.6788 2,3 0.333,0 0.667,0 1,0 0,1.3333 0,2.6667 0,4 -3.297,-1.6335 -4.964,-4.3001 -5,-8 z" id="path99"/>
  </g>
  <g id="g100">
    <path fill="#62b888" d="m 134.5,49.5 c 0.901,0.7905 1.568,1.7905 2,3 -1.548,-0.3212 -2.215,-1.3212 -2,-3 z" id="path100"/>
  </g>
  <g id="g101">
    <path fill="#aedac2" d="m 4.5,49.5 c 0.09794,2.0529 -0.56873,3.7196 -2,5 -0.09794,-2.0529 0.56873,-3.7196 2,-5 z" id="path101"/>
  </g>
  <g id="g102">
    <path fill="#404954" d="m 33.5,52.5 c -0.3184,16.381 0.0149,32.7143 1,49 24.3242,1 48.6575,1.333 73,1 0,0.333 0,0.667 0,1 -25.1722,0.331 -50.1722,-0.002 -75,-1 0,-0.667 0,-1.333 0,-2 -0.3297,-16.1754 0.0036,-32.1754 1,-48 z" id="path102"/>
  </g>
  <g id="g103">
    <path fill="#b0dbc3" d="m 122.5,49.5 c 0.667,1 1.333,2 2,3 0,0.6667 0,1.3333 0,2 -1.713,-1.1354 -2.38,-2.802 -2,-5 z" id="path103"/>
  </g>
  <g id="g104">
    <path fill="#bec1c6" d="m 113.5,47.5 c 0.997,18.1591 1.33,36.4924 1,55 -0.473,1.406 -1.473,2.073 -3,2 -0.667,0 -1.333,0 -2,0 1.031,-0.749 2.198,-1.415 3.5,-2 0.5,-18.3303 0.667,-36.6636 0.5,-55 z" id="path104"/>
  </g>
  <g id="g105">
    <path fill="#6dbd91" d="m 17.5,52.5 c -3.0743,2.5412 -4.4077,5.8745 -4,10 -0.3333,0 -0.6667,0 -1,0 0,-1.6667 0,-3.3333 0,-5 0,-0.3333 0,-0.6667 0,-1 0.7957,-2.3357 2.4623,-3.669 5,-4 z" id="path105"/>
  </g>
  <g id="g106">
    <path fill="#1d2835" d="m 106.5,46.5 c 0.333,0 0.667,0 1,0 1.268,18.7223 1.268,37.389 0,56 -24.3425,0.333 -48.6758,0 -73,-1 -0.9851,-16.2857 -1.3184,-32.619 -1,-49 -0.2845,-1.9147 0.0489,-3.5813 1,-5 23.9253,-0.9895 47.9253,-1.3229 72,-1 z" id="path106"/>
  </g>
  <g id="g107">
    <path fill="#646b75" d="m 102.5,52.5 c 0,0.6667 0,1.3333 0,2 -1,0 -2,0 -3,0 -19.3333,-1.3333 -38.6667,-1.3333 -58,0 -0.6667,0 -1.3333,0 -2,0 0.1107,-0.6174 0.444,-1.1174 1,-1.5 20.664,-0.5 41.3306,-0.6666 62,-0.5 z" id="path107"/>
  </g>
  <g id="g108">
    <path fill="#313b47" d="m 102.5,52.5 c -20.6694,-0.1666 -41.336,0 -62,0.5 -0.556,0.3826 -0.8893,0.8826 -1,1.5 -0.6667,0.3333 -1.3333,0.6667 -2,1 0,-0.3333 0,-0.6667 0,-1 0.4528,-0.9584 1.1195,-1.7917 2,-2.5 21.1707,-0.8293 42.1707,-0.6627 63,0.5 z" id="path108"/>
  </g>
  <g id="g109">
    <path fill="#0d1a28" d="m 36.5,47.5 c 23,0 46,0 69,0 0,1 0,2 0,3 -23,0 -46,0 -69,0 0,-1 0,-2 0,-3 z" id="path109"/>
  </g>
  <g id="g110">
    <path fill="#787f87" d="m 109.5,46.5 c 0.958,0.4528 1.792,1.1195 2.5,2 0.829,17.5049 0.662,34.8382 -0.5,52 0.167,-17.0033 0,-34.0033 -0.5,-51 -0.383,-0.556 -0.883,-0.8893 -1.5,-1 0,-0.6667 0,-1.3333 0,-2 z" id="path110"/>
  </g>
  <g id="g111">
    <path fill="#9ea3a9" d="m 109.5,44.5 c 1.53,0.7112 2.863,1.7112 4,3 0.167,18.3364 0,36.6697 -0.5,55 -1.302,0.585 -2.469,1.251 -3.5,2 -0.667,0 -1.333,0 -2,0 0,-0.333 0,-0.667 0,-1 0,-0.333 0,-0.667 0,-1 0.667,0 1.333,0 2,0 1.333,0 2,-0.667 2,-2 1.162,-17.1618 1.329,-34.4951 0.5,-52 -0.708,-0.8805 -1.542,-1.5472 -2.5,-2 0,-0.6667 0,-1.3333 0,-2 z" id="path111"/>
  </g>
  <g id="g112">
    <path fill="#48ac75" d="m 17.5,49.5 c 0,1 0,2 0,3 -2.5377,0.331 -4.2043,1.6643 -5,4 0.2349,-3.3032 1.9015,-5.6365 5,-7 z" id="path112"/>
  </g>
  <g id="g113">
    <path fill="#6cbc8f" d="m 124.5,52.5 c 2.014,-0.1085 3.68,0.5582 5,2 0,2.6667 0,5.3333 0,8 0,0.6667 0,1.3333 0,2 -0.667,-1.6667 -1.333,-3.3333 -2,-5 0,-0.3333 0,-0.6667 0,-1 0,-1.3333 0,-2.6667 0,-4 -1,0 -2,0 -3,0 0,-0.6667 0,-1.3333 0,-2 z" id="path113"/>
  </g>
  <g id="g114">
    <path fill="#b1b4b9" d="m 27.5,47.5 c 0.6667,0 1.3333,0 2,0 0,18.3333 0,36.6667 0,55 -0.6667,0 -1.3333,0 -2,0 0,-18.3333 0,-36.6667 0,-55 z" id="path114"/>
  </g>
  <g id="g115">
    <path fill="#767c85" d="m 32.5,44.5 c 0.6667,0 1.3333,0 2,0 0,0.3333 0,0.6667 0,1 -1,0.3333 -1.6667,1 -2,2 -0.6174,0.1107 -1.1174,0.444 -1.5,1 -0.8285,17.5049 -0.6618,34.8382 0.5,52 0.3333,0 0.6667,0 1,0 0,0.667 0,1.333 0,2 -1,0 -2,0 -3,0 0,-18.3333 0,-36.6667 0,-55 1.3333,-0.6667 2.3333,-1.6667 3,-3 z" id="path115"/>
  </g>
  <g id="g116">
    <path fill="#606771" d="m 32.5,47.5 c -0.9729,17.6198 -1.3062,35.2864 -1,53 -1.1618,-17.1618 -1.3285,-34.4951 -0.5,-52 0.3826,-0.556 0.8826,-0.8893 1.5,-1 z" id="path116"/>
  </g>
  <g id="g117">
    <path fill="#5e666f" d="m 109.5,48.5 c 0.617,0.1107 1.117,0.444 1.5,1 0.5,16.9967 0.667,33.9967 0.5,51 0,1.333 -0.667,2 -2,2 0,-18 0,-36 0,-54 z" id="path117"/>
  </g>
  <g id="g118">
    <path fill="#e1e3e4" d="m 112.5,42.5 c 2.667,0.6667 4.333,2.3333 5,5 -0.617,-0.1107 -1.117,-0.444 -1.5,-1 -0.5,18.6637 -0.667,37.3304 -0.5,56 -0.333,0 -0.667,0 -1,0 0.33,-18.5076 -0.003,-36.8409 -1,-55 0.134,-1.7915 -0.199,-3.4582 -1,-5 z" id="path118"/>
  </g>
  <g id="g119">
    <path fill="#afdbc2" d="m 19.5,49.5 c 0,1.3333 0,2.6667 0,4 0,0.3333 0,0.6667 0,1 -4.1234,2.4825 -6.1234,6.1492 -6,11 0,-1 0,-2 0,-3 -0.4077,-4.1255 0.9257,-7.4588 4,-10 0.6667,-1 1.3333,-2 2,-3 z" id="path119"/>
  </g>
  <g id="g120">
    <path fill="#ecedee" d="m 44.5,56.5 c 13,0 26,0 39,0 0,0.6667 -0.3333,1 -1,1 -12.3333,0 -24.6667,0 -37,0 0,11 0,22 0,33 4.8633,0.3195 9.53,-0.0139 14,-1 1,0 2,0 3,0 0,0.6667 0,1.3333 0,2 -5.6667,0 -11.3333,0 -17,0 -0.6174,-0.1107 -1.1174,-0.444 -1.5,-1 -0.8259,-11.5076 -0.6593,-22.8409 0.5,-34 z" id="path120"/>
  </g>
  <g id="g121">
    <path fill="#fcfcfc" d="m 82.5,57.5 c 0,0.6667 0,1.3333 0,2 -2.6336,0.6334 -4.3002,2.3001 -5,5 -1.3333,0.6667 -2.3333,1.6667 -3,3 -1.3333,0 -2,0.6667 -2,2 -0.6667,0.3333 -1.3333,0.6667 -2,1 -1.4305,-0.0792 -2.7638,0.2542 -4,1 -3.3673,-2.1936 -6.8673,-4.1936 -10.5,-6 -2.151,0.1431 -3.8176,1.1431 -5,3 -2.9423,9.5783 -0.109,16.5783 8.5,21 -4.47,0.9861 -9.1367,1.3195 -14,1 0,-11 0,-22 0,-33 12.3333,0 24.6667,0 37,0 z" id="path121"/>
  </g>
  <g id="g122">
    <path fill="#fdfdfd" d="m 91.5,57.5 c 1.3333,0 2.6667,0 4,0 0.1665,10.6719 -2e-4,21.3385 -0.5,32 -6.7445,0.9788 -13.5778,1.3122 -20.5,1 5.6228,-6.4927 11.2895,-12.9927 17,-19.5 1.0063,-4.4776 1.0063,-8.9776 0,-13.5 z" id="path122"/>
  </g>
  <g id="g123">
    <path fill="#f3f4f4" d="m 88.5,56.5 c 2.9475,-0.2771 5.7809,0.0562 8.5,1 0.8324,11.0151 0.6658,22.0151 -0.5,33 -7.9441,0.9685 -15.9441,1.3019 -24,1 0.3417,-0.8382 1.0084,-1.1716 2,-1 6.9222,0.3122 13.7555,-0.0212 20.5,-1 0.4998,-10.6615 0.6665,-21.3281 0.5,-32 -1.3333,0 -2.6667,0 -4,0 -1.291,0.2373 -2.291,-0.096 -3,-1 z" id="path123"/>
  </g>
  <g id="g124">
    <path fill="#27323f" d="m 102.5,52.5 c 1.25,0.0774 2.083,0.744 2.5,2 0.827,13.5064 0.66,26.8397 -0.5,40 0.167,-13.0043 0,-26.0043 -0.5,-39 -0.383,-0.556 -0.883,-0.8893 -1.5,-1 0,-0.6667 0,-1.3333 0,-2 z" id="path124"/>
  </g>
  <g id="g125">
    <path fill="#39434f" d="m 107.5,46.5 c 0.667,0 1.333,0 2,0 0,0.6667 0,1.3333 0,2 0,18 0,36 0,54 -0.667,0 -1.333,0 -2,0 1.268,-18.611 1.268,-37.2777 0,-56 z" id="path125"/>
  </g>
  <g id="g126">
    <path fill="#afdbc3" d="m 124.5,54.5 c 1,0 2,0 3,0 0,1.3333 0,2.6667 0,4 -1.946,-0.5347 -2.946,-1.868 -3,-4 z" id="path126"/>
  </g>
  <g id="g127">
    <path fill="#a0a6ab" d="m 99.5,54.5 c -0.6667,0 -1.3333,0 -2,0 -18.0031,-0.1666 -36.0031,1e-4 -54,0.5 -0.556,0.3826 -0.8893,0.8826 -1,1.5 -0.9949,11.488 -1.3283,23.1547 -1,35 -1.3203,-12.2353 -1.3203,-24.5687 0,-37 19.3333,-1.3333 38.6667,-1.3333 58,0 z" id="path127"/>
  </g>
  <g id="g128">
    <path fill="#cfd1d4" d="m 97.5,54.5 c 0,0.3333 0,0.6667 0,1 -17.8412,-0.3301 -35.5079,0.0033 -53,1 -1.1593,11.1591 -1.3259,22.4924 -0.5,34 0.3826,0.556 0.8826,0.8893 1.5,1 0,0.3333 0,0.6667 0,1 -0.6667,0 -1.3333,0 -2,0 -0.9786,-11.9197 -1.3119,-23.9197 -1,-36 0.1107,-0.6174 0.444,-1.1174 1,-1.5 17.9969,-0.4999 35.9969,-0.6666 54,-0.5 z" id="path128"/>
  </g>
  <g id="g129">
    <path fill="#d7ece0" d="m 89.5,62.5 c -0.3333,0 -0.6667,0 -1,0 -0.2911,-1.1491 -1.1244,-1.8158 -2.5,-2 -1.6991,-0.1134 -2.8658,0.5532 -3.5,2 -1.6788,-0.2148 -2.6788,0.4519 -3,2 -0.6667,0 -1.3333,0 -2,0 0.6998,-2.6999 2.3664,-4.3666 5,-5 1.9546,-0.8235 3.9546,-0.9901 6,-0.5 0.8366,1.0113 1.17,2.1779 1,3.5 z" id="path129"/>
  </g>
  <g id="g130">
    <path fill="#91959c" d="m 99.5,54.5 c 1,0 2,0 3,0 0,12.6667 0,25.3333 0,38 -0.333,0 -0.667,0 -1,0 0.329,-12.5113 -0.005,-24.8446 -1,-37 -0.6667,0 -1,-0.3333 -1,-1 z" id="path130"/>
  </g>
  <g id="g131">
    <path fill="#80c59f" d="m 137.5,52.5 c 1.424,2.0145 2.09,4.3478 2,7 -0.667,-0.6667 -1.333,-1.3333 -2,-2 0,-0.3333 0,-0.6667 0,-1 0,-1.3333 0,-2.6667 0,-4 z" id="path131"/>
  </g>
  <g id="g132">
    <path fill="#dfe0e2" d="m 44.5,56.5 c 17.4921,-0.9967 35.1588,-1.3301 53,-1 0.8382,0.3417 1.1716,1.0084 1,2 0.3211,11.5809 -0.0122,23.0809 -1,34.5 -17.3301,0.4999 -34.6635,0.6666 -52,0.5 0,-0.3333 0,-0.6667 0,-1 5.6667,0 11.3333,0 17,0 3.3333,0 6.6667,0 10,0 8.0559,0.3019 16.0559,-0.0315 24,-1 1.1658,-10.9849 1.3324,-21.9849 0.5,-33 -2.7191,-0.9438 -5.5525,-1.2771 -8.5,-1 -1.6667,0 -3.3333,0 -5,0 -13,0 -26,0 -39,0 z" id="path132"/>
  </g>
  <g id="g133">
    <path fill="#c7c9cd" d="m 98.5,57.5 c 0.9948,11.1544 1.3281,22.4877 1,34 0,0.3333 0,0.6667 0,1 -0.3417,0.8382 -1.0084,1.1716 -2,1 -17.508,0.33 -34.8414,-0.0033 -52,-1 17.3365,0.1666 34.6699,-1e-4 52,-0.5 0.9878,-11.4191 1.3211,-22.9191 1,-34.5 z" id="path133"/>
  </g>
  <g id="g134">
    <path fill="#b7dec7" d="m 88.5,62.5 c -2,0 -4,0 -6,0 0.6342,-1.4468 1.8009,-2.1134 3.5,-2 1.3756,0.1842 2.2089,0.8509 2.5,2 z" id="path134"/>
  </g>
  <g id="g135">
    <path fill="#a3d5b9" d="m 2.5,57.5 c 0,0.6667 0,1.3333 0,2 0.2271,2.4328 -0.7729,4.0994 -3,5 0,-1.6667 0,-3.3333 0,-5 1,-0.6667 2,-1.3333 3,-2 z" id="path135"/>
  </g>
  <g id="g136">
    <path fill="#219a56" d="m 11.5,46.5 c -0.1567,1.3734 0.01,2.7068 0.5,4 1.8665,-1.0266 3.6998,-2.0266 5.5,-3 0,0.6667 0,1.3333 0,2 -3.0985,1.3635 -4.7651,3.6968 -5,7 0,0.3333 0,0.6667 0,1 -0.7182,3.5929 -2.2182,6.9262 -4.5,10 -0.82322,8.5104 -0.65655,16.8437 0.5,25 -0.28448,1.9147 0.04885,3.5813 1,5 0.7638,2.518 1.7638,4.851 3,7 -0.2022,2.489 0.2978,4.823 1.5,7 1.0113,0.837 2.1779,1.17 3.5,1 0,1.667 0,3.333 0,5 -0.904,-0.709 -1.2373,-1.709 -1,-3 -1.788,-0.285 -3.4547,0.048 -5,1 1.4524,1.44 2.4524,3.106 3,5 -1.422,-1.425 -3.0887,-2.425 -5,-3 0.21738,-2.921 -0.44929,-5.587 -2,-8 1,0 2,0 3,0 0.1621,-2.027 -0.0045,-4.027 -0.5,-6 -1.38476,-1.051 -2.38476,-2.384 -3,-4 -0.49742,2.646 -0.66409,5.313 -0.5,8 -0.66667,0 -1.33333,0 -2,0 0.16409,-2.687 -0.00258,-5.354 -0.5,-8 -0.27842,-0.9158 -0.77842,-1.5825 -1.5,-2 0.52092,-3.1363 -0.47908,-5.4696 -3,-7 0,-6 0,-12 0,-18 1.81093,-0.072 3.14426,-0.9053 4,-2.5 0.86722,-3.1052 1.20055,-6.2719 1,-9.5 0,-1.3333 0,-2.6667 0,-4 0,-0.3333 0,-0.6667 0,-1 3.50891,-2.1652 5.8422,-5.1652 7,-9 z" id="path136"/>
  </g>
  <g id="g137">
    <path fill="#26313e" d="m 37.5,54.5 c 0,0.3333 0,0.6667 0,1 -0.3286,12.5113 0.0048,24.8446 1,37 -0.134,1.7915 0.1993,3.4582 1,5 -1.4311,-0.3807 -2.2645,-1.3807 -2.5,-3 -0.827,-13.5064 -0.6604,-26.8397 0.5,-40 z" id="path137"/>
  </g>
  <g id="g138">
    <path fill="#bdc1c4" d="m 42.5,56.5 c -0.3119,12.0803 0.0214,24.0803 1,36 -0.6667,0 -1.3333,0 -2,0 0,-0.3333 0,-0.6667 0,-1 -0.3283,-11.8453 0.0051,-23.512 1,-35 z" id="path138"/>
  </g>
  <g id="g139">
    <path fill="#b9bcc0" d="m 97.5,55.5 c 0,-0.3333 0,-0.6667 0,-1 0.6667,0 1.3333,0 2,0 0,0.6667 0.3333,1 1,1 0.328,12.1783 -0.005,24.1783 -1,36 0.3281,-11.5123 -0.0052,-22.8456 -1,-34 0.1716,-0.9916 -0.1618,-1.6583 -1,-2 z" id="path139"/>
  </g>
  <g id="g140">
    <path fill="#a7abb1" d="m 100.5,55.5 c 0.995,12.1554 1.329,24.4887 1,37 -0.667,0 -1.333,0 -2,0 0,-0.3333 0,-0.6667 0,-1 0.995,-11.8217 1.328,-23.8217 1,-36 z" id="path140"/>
  </g>
  <g id="g141">
    <path fill="#73c096" d="m 12.5,63.5 c -0.4925,2.3185 -1.4925,4.3185 -3,6 -0.47542,-2.8126 0.5246,-4.8126 3,-6 z" id="path141"/>
  </g>
  <g id="g142">
    <path fill="#555e67" d="m 39.5,54.5 c 0,12.6667 0,25.3333 0,38 -0.3333,0 -0.6667,0 -1,0 -0.9952,-12.1554 -1.3286,-24.4887 -1,-37 0.6667,-0.3333 1.3333,-0.6667 2,-1 z" id="path142"/>
  </g>
  <g id="g143">
    <path fill="#959aa0" d="m 39.5,54.5 c 0.6667,0 1.3333,0 2,0 -1.3203,12.4313 -1.3203,24.7647 0,37 0,0.3333 0,0.6667 0,1 -0.6667,0 -1.3333,0 -2,0 0,-12.6667 0,-25.3333 0,-38 z" id="path143"/>
  </g>
  <g id="g144">
    <path fill="#9cd2b4" d="m 77.5,64.5 c 0.6667,0 1.3333,0 2,0 -0.4321,1.2095 -1.0987,2.2095 -2,3 0,-1 0,-2 0,-3 z" id="path144"/>
  </g>
  <g id="g145">
    <path fill="#54a970" d="m 81.5,64.5 c 1.7646,-0.9614 3.7646,-1.2947 6,-1 0,1.6667 0,3.3333 0,5 -1.109,0.0569 -2.109,0.3902 -3,1 1.0025,-1.5109 1.6692,-3.1776 2,-5 -1.6667,0 -3.3333,0 -5,0 z" id="path145"/>
  </g>
  <g id="g146">
    <path fill="#85c39a" d="m 82.5,62.5 c 2,0 4,0 6,0 0.2947,2.2354 -0.0386,4.2354 -1,6 0,-1.6667 0,-3.3333 0,-5 -2.2354,-0.2947 -4.2354,0.0386 -6,1 -0.6667,0 -1.3333,0 -2,0 0.3212,-1.5481 1.3212,-2.2148 3,-2 z" id="path146"/>
  </g>
  <g id="g147">
    <path fill="#a7d4b7" d="m 88.5,62.5 c 0.3333,0 0.6667,0 1,0 0,2.3333 0,4.6667 0,7 -1.6667,1.3333 -3.3333,2.6667 -5,4 0.575,-1.9113 1.575,-3.578 3,-5 0.9614,-1.7646 1.2947,-3.7646 1,-6 z" id="path147"/>
  </g>
  <g id="g148">
    <path fill="#a6d7bd" d="m 139.5,59.5 c 3.39,1.4437 4.723,4.1104 4,8 -1.741,-2.4236 -3.075,-5.0902 -4,-8 z" id="path148"/>
  </g>
  <g id="g149">
    <path fill="#62b889" d="m 4.5,56.5 c 0,1.3333 0,2.6667 0,4 -0.81382,2.131 -1.31382,4.4644 -1.5,7 -0.81595,1.3228 -1.98261,1.9894 -3.5,2 0,-1.6667 0,-3.3333 0,-5 2.2271,-0.9006 3.2271,-2.5672 3,-5 0.66667,-1 1.33333,-2 2,-3 z" id="path149"/>
  </g>
  <g id="g150">
    <path fill="#cbe7d7" d="m 77.5,64.5 c 0,1 0,2 0,3 -1,0 -2,0 -3,0 0.6667,-1.3333 1.6667,-2.3333 3,-3 z" id="path150"/>
  </g>
  <g id="g151">
    <path fill="#64b788" d="m 79.5,64.5 c 0.6667,0 1.3333,0 2,0 -1.1005,1.1049 -1.7671,2.4382 -2,4 -1.8325,0.7485 -3.4991,1.7485 -5,3 0,-0.6667 0,-1.3333 0,-2 1.2095,-0.4321 2.2095,-1.0987 3,-2 0.9013,-0.7905 1.5679,-1.7905 2,-3 z" id="path151"/>
  </g>
  <g id="g152">
    <path fill="#c8e6d5" d="m 74.5,67.5 c 0,0.6667 0,1.3333 0,2 -0.6667,0 -1.3333,0 -2,0 0,-1.3333 0.6667,-2 2,-2 z" id="path152"/>
  </g>
  <g id="g153">
    <path fill="#9cd2b4" d="m 74.5,67.5 c 1,0 2,0 3,0 -0.7905,0.9013 -1.7905,1.5679 -3,2 0,-0.6667 0,-1.3333 0,-2 z" id="path153"/>
  </g>
  <g id="g154">
    <path fill="#2c9955" d="m 81.5,64.5 c 1.6667,0 3.3333,0 5,0 -0.3308,1.8224 -0.9975,3.4891 -2,5 -1.5481,0.3212 -2.2148,1.3212 -2,3 -2.0323,-0.5478 -3.0323,-1.8812 -3,-4 0.2329,-1.5618 0.8995,-2.8951 2,-4 z" id="path154"/>
  </g>
  <g id="g155">
    <path fill="#bbe0cc" d="m 127.5,59.5 c 0.667,1.6667 1.333,3.3333 2,5 0,1.6667 0,3.3333 0,5 -0.667,-0.3333 -1.333,-0.6667 -2,-1 0,-3 0,-6 0,-9 z" id="path155"/>
  </g>
  <g id="g156">
    <path fill="#93cead" d="m 12.5,62.5 c 0.3333,0 0.6667,0 1,0 0,1 0,2 0,3 -0.3333,1.3333 -0.6667,2.6667 -1,4 -1.0585,1.1002 -1.8918,2.4336 -2.5,4 -0.49926,4.9889 -0.66593,9.9889 -0.5,15 0,1.3333 0,2.6667 0,4 -0.33333,0 -0.66667,0 -1,0 -0.32536,-7.8516 0.00797,-15.5182 1,-23 1.5075,-1.6815 2.5075,-3.6815 3,-6 0,-0.3333 0,-0.6667 0,-1 z" id="path156"/>
  </g>
  <g id="g157">
    <path fill="#b0d9c0" d="m 62.5,72.5 c 0.3333,0.6667 0.6667,1.3333 1,2 -1.7838,-0.3925 -3.4505,-1.0592 -5,-2 -1.5018,-2.5219 -2.8351,-2.5219 -4,0 0,0.6667 0,1.3333 0,2 -0.904,0.709 -1.2373,1.709 -1,3 -0.9511,-1.4187 -1.2845,-3.0853 -1,-5 0.904,-0.709 1.2373,-1.709 1,-3 1.6992,-0.1602 3.3659,0.0065 5,0.5 0.9709,1.4813 2.3042,2.3146 4,2.5 z" id="path157"/>
  </g>
  <g id="g158">
    <path fill="#91cdac" d="m 129.5,64.5 c 2.085,2.1845 3.085,4.8511 3,8 -0.772,-1.1935 -1.772,-2.1935 -3,-3 0,-1.6667 0,-3.3333 0,-5 z" id="path158"/>
  </g>
  <g id="g159">
    <path fill="#89c9a5" d="m 72.5,69.5 c 0.6667,0 1.3333,0 2,0 0,0.6667 0,1.3333 0,2 0,0.3333 0,0.6667 0,1 -0.6667,0 -1.3333,0 -2,0 0,-1 0,-2 0,-3 z" id="path159"/>
  </g>
  <g id="g160">
    <path fill="#4aaa70" d="m 84.5,69.5 c -0.4321,1.2095 -1.0987,2.2095 -2,3 -0.2148,-1.6788 0.4519,-2.6788 2,-3 z" id="path160"/>
  </g>
  <g id="g161">
    <path fill="#7dc197" d="m 87.5,68.5 c -1.425,1.422 -2.425,3.0887 -3,5 -0.6667,0 -1,0.3333 -1,1 -2.3333,0.3333 -3.6667,1.6667 -4,4 -0.6667,0 -1,0.3333 -1,1 -2.3333,0.3333 -3.6667,1.6667 -4,4 -0.6667,0 -1,0.3333 -1,1 -2.2488,0.5798 -3.9154,1.9131 -5,4 -1.7646,0.9614 -3.7646,1.2947 -6,1 0,-0.3333 0,-0.6667 0,-1 -0.2376,-1.9044 -1.2376,-3.2377 -3,-4 0,-0.6667 0,-1.3333 0,-2 2.5759,1.0687 4.7426,2.7354 6.5,5 1.6424,-0.4778 2.8091,-1.4778 3.5,-3 1.2095,-0.4321 2.2095,-1.0987 3,-2 1.3333,-2 3,-3.6667 5,-5 1.3333,-2 3,-3.6667 5,-5 0.9013,-0.7905 1.5679,-1.7905 2,-3 0.891,-0.6098 1.891,-0.9431 3,-1 z" id="path161"/>
  </g>
  <g id="g162">
    <path fill="#3ba76c" d="m 4.5,60.5 c 0.20055,3.2281 -0.13278,6.3948 -1,9.5 -0.85574,1.5947 -2.18907,2.428 -4,2.5 0,-1 0,-2 0,-3 1.51739,-0.0106 2.68405,-0.6772 3.5,-2 0.18618,-2.5356 0.68618,-4.869 1.5,-7 z" id="path162"/>
  </g>
  <g id="g163">
    <path fill="#cbe7d7" d="m 72.5,69.5 c 0,1 0,2 0,3 -1,0 -2,0 -3,0 0.3333,-0.6667 0.6667,-1.3333 1,-2 0.6667,-0.3333 1.3333,-0.6667 2,-1 z" id="path163"/>
  </g>
  <g id="g164">
    <path fill="#d2e9da" d="m 52.5,72.5 c -0.2845,1.9147 0.0489,3.5813 1,5 1.5862,2.1705 2.9196,4.5038 4,7 -3.095,-0.1263 -4.9283,-1.793 -5.5,-5 -0.7958,-2.5385 -0.6291,-4.8718 0.5,-7 z" id="path164"/>
  </g>
  <g id="g165">
    <path fill="#63b685" d="m 54.5,72.5 c 1.3333,0 2.6667,0 4,0 1.5495,0.9408 3.2162,1.6075 5,2 -0.016,1.9841 0.984,2.9841 3,3 1.6753,-0.3684 2.6753,-1.3684 3,-3 1.2095,-0.4321 2.2095,-1.0987 3,-2 0.6667,0 1.3333,0 2,0 -2.6897,1.6935 -4.6897,4.0268 -6,7 -4.1107,-2.0759 -8.444,-3.7425 -13,-5 -0.0674,1.4587 0.2659,2.7921 1,4 -1.6765,-0.6834 -2.3432,-2.0168 -2,-4 0,-0.6667 0,-1.3333 0,-2 z" id="path165"/>
  </g>
  <g id="g166">
    <path fill="#d5ecdf" d="m 62.5,72.5 c 2.3333,1.3333 4.6667,1.3333 7,0 0,0.6667 0,1.3333 0,2 -2.0487,1.1414 -4.0487,1.1414 -6,0 -0.3333,-0.6667 -0.6667,-1.3333 -1,-2 z" id="path166"/>
  </g>
  <g id="g167">
    <path fill="#9ed2b5" d="m 69.5,72.5 c 1,0 2,0 3,0 -0.7905,0.9013 -1.7905,1.5679 -3,2 0,-0.6667 0,-1.3333 0,-2 z" id="path167"/>
  </g>
  <g id="g168">
    <path fill="#13944c" d="M 4.5,72.5 C 5.65515,79.6549 5.82182,86.9882 5,94.5 0.865687,87.1101 0.69902,79.7767 4.5,72.5 Z" id="path168"/>
  </g>
  <g id="g169">
    <path fill="#afdac2" d="m 63.5,74.5 c 1.9513,1.1414 3.9513,1.1414 6,0 -0.3247,1.6316 -1.3247,2.6316 -3,3 -2.016,-0.0159 -3.016,-1.0159 -3,-3 z" id="path169"/>
  </g>
  <g id="g170">
    <path fill="#2f9d5c" d="m 79.5,68.5 c -0.0323,2.1188 0.9677,3.4522 3,4 -2,1.3333 -3.6667,3 -5,5 -3.3333,0 -5,1.6667 -5,5 -0.7905,0.9013 -1.7905,1.5679 -3,2 0.6079,-1.2997 1.2745,-2.6331 2,-4 -0.1667,-0.6667 -0.3333,-1.3333 -0.5,-2 -0.6708,0.7524 -1.5041,1.0858 -2.5,1 1.3103,-2.9732 3.3103,-5.3065 6,-7 0,-0.3333 0,-0.6667 0,-1 1.5009,-1.2515 3.1675,-2.2515 5,-3 z" id="path170"/>
  </g>
  <g id="g171">
    <path fill="#a0d3b5" d="m 83.5,74.5 c -1,1.6667 -2.3333,3 -4,4 0.3333,-2.3333 1.6667,-3.6667 4,-4 z" id="path171"/>
  </g>
  <g id="g172">
    <path fill="#289854" d="m 68.5,79.5 c 0.9959,0.0858 1.8292,-0.2476 2.5,-1 0.1667,0.6667 0.3333,1.3333 0.5,2 -0.7255,1.3669 -1.3921,2.7003 -2,4 -0.6909,1.5222 -1.8576,2.5222 -3.5,3 -1.7574,-2.2646 -3.9241,-3.9313 -6.5,-5 0.4118,-2.4726 -0.5882,-3.8059 -3,-4 -0.7341,-1.2079 -1.0674,-2.5413 -1,-4 4.556,1.2575 8.8893,2.9241 13,5 z" id="path172"/>
  </g>
  <g id="g173">
    <path fill="#56b27f" d="m 12.5,57.5 c 0,1.6667 0,3.3333 0,5 0,0.3333 0,0.6667 0,1 -2.4754,1.1874 -3.47542,3.1874 -3,6 -0.99203,7.4818 -1.32536,15.1484 -1,23 C 7.34345,84.3437 7.17678,76.0104 8,67.5 c 2.2818,-3.0738 3.7818,-6.4071 4.5,-10 z" id="path173"/>
  </g>
  <g id="g174">
    <path fill="#eef5f2" d="m 117.5,47.5 c 0.473,1.4063 1.473,2.073 3,2 0.667,0 1.333,0 2,0 -0.38,2.198 0.287,3.8646 2,5 0.054,2.132 1.054,3.4653 3,4 0,0.3333 0,0.6667 0,1 0,3 0,6 0,9 1.705,6.5144 2.371,13.1811 2,20 -0.617,0.1107 -1.117,0.444 -1.5,1 -0.573,4.3477 -1.24,8.681 -2,13 -0.278,0.916 -0.778,1.582 -1.5,2 0.615,-7.7219 1.615,-15.3886 3,-23 -1.33,-6.9331 -2.33,-13.9331 -3,-21 -2.643,-3.5494 -5.143,-7.2161 -7.5,-11 -0.168,17.8381 -0.668,35.5047 -1.5,53 -0.167,-18.6696 0,-37.3363 0.5,-56 0.383,0.556 0.883,0.8893 1.5,1 z" id="path174"/>
  </g>
  <g id="g175">
    <path fill="#d1eadc" d="m 12.5,73.5 c -0.7295,4.6304 -1.0628,9.2971 -1,14 -0.6611,-1.634 -0.9944,-3.4674 -1,-5.5 -0.1397,-3.1498 0.527,-5.9831 2,-8.5 z" id="path175"/>
  </g>
  <g id="g176">
    <path fill="#54ad76" d="m 56.5,78.5 c 2.4118,0.1941 3.4118,1.5274 3,4 -0.9884,-1.295 -1.9884,-2.6283 -3,-4 z" id="path176"/>
  </g>
  <g id="g177">
    <path fill="#4bab73" d="m 77.5,77.5 c -2,1.3333 -3.6667,3 -5,5 0,-3.3333 1.6667,-5 5,-5 z" id="path177"/>
  </g>
  <g id="g178">
    <path fill="#0b9147" d="m 136.5,69.5 c 3.64,5.7583 4.806,12.0916 3.5,19 -1.011,0.8366 -2.178,1.17 -3.5,1 0,-6.6667 0,-13.3333 0,-20 z" id="path178"/>
  </g>
  <g id="g179">
    <path fill="#b2dcc5" d="m 129.5,69.5 c 1.228,0.8065 2.228,1.8065 3,3 0,6 0,12 0,18 -0.667,0.6667 -1.333,1.3333 -2,2 1.191,-5.1446 1.191,-10.1446 0,-15 -0.333,-2.6667 -0.667,-5.3333 -1,-8 z" id="path179"/>
  </g>
  <g id="g180">
    <path fill="#67ba8c" d="m 129.5,62.5 c 0.667,0 1.333,0 2,0 2.758,8.728 3.758,17.728 3,27 -0.667,1.6667 -1.333,3.3333 -2,5 0,-1.3333 0,-2.6667 0,-4 0,-6 0,-12 0,-18 0.085,-3.1489 -0.915,-5.8155 -3,-8 0,-0.6667 0,-1.3333 0,-2 z" id="path180"/>
  </g>
  <g id="g181">
    <path fill="#39a569" d="m 137.5,62.5 c 1.576,2.8522 3.076,5.8522 4.5,9 0.76,7.0495 0.593,14.0495 -0.5,21 -0.333,0 -0.667,0 -1,0 1.039,-6.2967 1.206,-12.6301 0.5,-19 -2.311,-3.2916 -3.477,-6.9583 -3.5,-11 z" id="path181"/>
  </g>
  <g id="g182">
    <path fill="#93cba8" d="m 54.5,74.5 c -0.3432,1.9832 0.3235,3.3166 2,4 1.0116,1.3717 2.0116,2.705 3,4 0,0.6667 0,1.3333 0,2 -0.6667,0 -1.3333,0 -2,0 -1.0804,-2.4962 -2.4138,-4.8295 -4,-7 -0.2373,-1.291 0.096,-2.291 1,-3 z" id="path182"/>
  </g>
  <g id="g183">
    <path fill="#a0d3b6" d="m 78.5,79.5 c -1,1.6667 -2.3333,3 -4,4 0.3333,-2.3333 1.6667,-3.6667 4,-4 z" id="path183"/>
  </g>
  <g id="g184">
    <path fill="#e9f3ed" d="m 83.5,56.5 c 1.6667,0 3.3333,0 5,0 0.709,0.904 1.709,1.2373 3,1 1.0063,4.5224 1.0063,9.0224 0,13.5 -5.7105,6.5073 -11.3772,13.0073 -17,19.5 -0.9916,-0.1716 -1.6583,0.1618 -2,1 -3.3333,0 -6.6667,0 -10,0 0,-0.6667 0,-1.3333 0,-2 2.2354,0.2947 4.2354,-0.0386 6,-1 0.6667,0 1.3333,0 2,0 0.7389,0.131 1.4056,-0.0357 2,-0.5 6.2183,-5.7496 11.885,-11.9162 17,-18.5 0,-2.3333 0,-4.6667 0,-7 0.17,-1.3221 -0.1634,-2.4887 -1,-3.5 -2.0454,-0.4901 -4.0454,-0.3235 -6,0.5 0,-0.6667 0,-1.3333 0,-2 0.6667,0 1,-0.3333 1,-1 z" id="path184"/>
  </g>
  <g id="g185">
    <path fill="#71be93" d="m 137.5,57.5 c 0.667,0.6667 1.333,1.3333 2,2 0.925,2.9098 2.259,5.5764 4,8 0.287,10.7181 -0.046,21.3848 -1,32 -1.4,0.6 -2.4,1.6 -3,3 0.047,-3.4686 0.713,-6.802 2,-10 1.093,-6.9505 1.26,-13.9505 0.5,-21 -1.424,-3.1478 -2.924,-6.1478 -4.5,-9 0,-1.6667 0,-3.3333 0,-5 z" id="path185"/>
  </g>
  <g id="g186">
    <path fill="#bbe0cb" d="m 12.5,69.5 c 0,1.3333 0,2.6667 0,4 -1.473,2.5169 -2.1397,5.3502 -2,8.5 0.0056,2.0326 0.3389,3.866 1,5.5 0.9511,1.4187 1.2845,3.0853 1,5 -1.4779,-0.9475 -2.4779,-2.2809 -3,-4 -0.16593,-5.0111 7.4e-4,-10.0111 0.5,-15 0.6082,-1.5664 1.4415,-2.8998 2.5,-4 z" id="path186"/>
  </g>
  <g id="g187">
    <path fill="#dff0e7" d="m 19.5,54.5 c -1.5507,3.119 -2.5507,6.4524 -3,10 -1.9269,5.5292 -2.9269,11.3625 -3,17.5 1.1829,8.4797 2.1829,16.9797 3,25.5 -0.6667,0 -1.3333,0 -2,0 0,-1.667 0,-3.333 0,-5 -0.0465,-3.4686 -0.7132,-6.802 -2,-10 0.2845,-1.9147 -0.0489,-3.5813 -1,-5 -0.0628,-4.7029 0.2705,-9.3696 1,-14 0,-1.3333 0,-2.6667 0,-4 0.3333,-1.3333 0.6667,-2.6667 1,-4 -0.1234,-4.8508 1.8766,-8.5175 6,-11 z" id="path187"/>
  </g>
  <g id="g188">
    <path fill="#d9eee2" d="m 127.5,68.5 c 0.667,0.3333 1.333,0.6667 2,1 0.333,2.6667 0.667,5.3333 1,8 0.315,3.8714 -0.018,7.5381 -1,11 0.371,-6.8189 -0.295,-13.4856 -2,-20 z" id="path188"/>
  </g>
  <g id="g189">
    <path fill="#edf7f1" d="m 70.5,70.5 c -0.3333,0.6667 -0.6667,1.3333 -1,2 -2.3333,1.3333 -4.6667,1.3333 -7,0 -1.9435,-4.4773 -5.1102,-5.8106 -9.5,-4 -0.49,1.2932 -0.6567,2.6266 -0.5,4 -1.1291,2.1282 -1.2958,4.4615 -0.5,7 0.5717,3.207 2.405,4.8737 5.5,5 0.6667,0 1.3333,0 2,0 -0.4118,2.4726 0.5882,3.8059 3,4 0,0.3333 0,0.6667 0,1 -1,0 -2,0 -3,0 -8.609,-4.4217 -11.4423,-11.4217 -8.5,-21 1.1824,-1.8569 2.849,-2.8569 5,-3 3.6327,1.8064 7.1327,3.8064 10.5,6 1.2362,-0.7458 2.5695,-1.0792 4,-1 z" id="path189"/>
  </g>
  <g id="g190">
    <path fill="#d8ede1" d="m 62.5,72.5 c -1.6958,-0.1854 -3.0291,-1.0187 -4,-2.5 -1.6341,-0.4935 -3.3008,-0.6602 -5,-0.5 0.2373,1.291 -0.096,2.291 -1,3 -0.1567,-1.3734 0.01,-2.7068 0.5,-4 4.3898,-1.8106 7.5565,-0.4773 9.5,4 z" id="path190"/>
  </g>
  <g id="g191">
    <path fill="#9acfb0" d="m 58.5,72.5 c -1.3333,0 -2.6667,0 -4,0 1.1649,-2.5219 2.4982,-2.5219 4,0 z" id="path191"/>
  </g>
  <g id="g192">
    <path fill="#a2d4b6" d="m 73.5,84.5 c -1,1.3333 -2,2.6667 -3,4 -0.6667,0 -1.3333,0 -2,0 1.0846,-2.0869 2.7512,-3.4202 5,-4 z" id="path192"/>
  </g>
  <g id="g193">
    <path fill="#b9dec8" d="m 59.5,84.5 c 1.7624,0.7623 2.7624,2.0956 3,4 -2.4118,-0.1941 -3.4118,-1.5274 -3,-4 z" id="path193"/>
  </g>
  <g id="g194">
    <path fill="#c3e4d1" d="m 89.5,69.5 c -5.115,6.5838 -10.7817,12.7504 -17,18.5 -0.5944,0.4643 -1.2611,0.631 -2,0.5 1,-1.3333 2,-2.6667 3,-4 0,-0.6667 0.3333,-1 1,-1 1.6667,-1 3,-2.3333 4,-4 0,-0.6667 0.3333,-1 1,-1 1.6667,-1 3,-2.3333 4,-4 0,-0.6667 0.3333,-1 1,-1 1.6667,-1.3333 3.3333,-2.6667 5,-4 z" id="path194"/>
  </g>
  <g id="g195">
    <path fill="#f2f9f5" d="m 16.5,64.5 c 0.0287,5.9087 -0.638,11.742 -2,17.5 1.3125,6.437 2.1458,12.937 2.5,19.5 0.5182,2.523 1.8515,4.523 4,6 0.4935,1.634 0.6602,3.301 0.5,5 -0.6667,-0.333 -1.3333,-0.667 -2,-1 0.0323,-2.119 -0.9677,-3.452 -3,-4 -0.8171,-8.5203 -1.8171,-17.0203 -3,-25.5 0.0731,-6.1375 1.0731,-11.9708 3,-17.5 z" id="path195"/>
  </g>
  <g id="g196">
    <path fill="#c6e5d4" d="m 130.5,77.5 c 1.191,4.8554 1.191,9.8554 0,15 -0.951,1.4187 -1.284,3.0853 -1,5 -0.333,0 -0.667,0 -1,0 -0.132,-3.0701 0.201,-6.0701 1,-9 0.982,-3.4619 1.315,-7.1286 1,-11 z" id="path196"/>
  </g>
  <g id="g197">
    <path fill="#93cdad" d="m 132.5,90.5 c 0,1.3333 0,2.6667 0,4 -1.4,0.5998 -2.4,1.5998 -3,3 -0.284,-1.9147 0.049,-3.5813 1,-5 0.667,-0.6667 1.333,-1.3333 2,-2 z" id="path197"/>
  </g>
  <g id="g198">
    <path fill="#77c198" d="m 8.5,92.5 c 0.33333,0 0.66667,0 1,0 1.4044,1.7546 2.4044,3.7546 3,6 -0.891,-0.6098 -1.891,-0.9431 -3,-1 -0.95115,-1.4187 -1.28448,-3.0853 -1,-5 z" id="path198"/>
  </g>
  <g id="g199">
    <path fill="#a6d7bc" d="m 9.5,88.5 c 0.5221,1.7191 1.5221,3.0525 3,4 1.2868,3.198 1.9535,6.5314 2,10 -0.6667,-1 -1.3333,-2 -2,-3 0,-0.3333 0,-0.6667 0,-1 -0.5956,-2.2454 -1.5956,-4.2454 -3,-6 0,-1.3333 0,-2.6667 0,-4 z" id="path199"/>
  </g>
  <g id="g200">
    <path fill="#55b17e" d="m -0.5,90.5 c 2.52092,1.5304 3.52092,3.8637 3,7 -1,0 -2,0 -3,0 0,-2.3333 0,-4.6667 0,-7 z" id="path200"/>
  </g>
  <g id="g201">
    <path fill="#525b65" d="m 102.5,54.5 c 0.617,0.1107 1.117,0.444 1.5,1 0.5,12.9957 0.667,25.9957 0.5,39 -0.667,0.6667 -1.333,1.3333 -2,2 -20.9667,0.9661 -41.9667,1.2994 -63,1 -0.8007,-1.5418 -1.134,-3.2085 -1,-5 0.3333,0 0.6667,0 1,0 0.0774,1.2498 0.744,2.0831 2,2.5 19.3333,0.6667 38.6667,0.6667 58,0 1.619,-0.2355 2.619,-1.0689 3,-2.5 0,-12.6667 0,-25.3333 0,-38 z" id="path201"/>
  </g>
  <g id="g202">
    <path fill="#727a82" d="m 39.5,92.5 c 0.6667,0 1.3333,0 2,0 0.4175,0.7216 1.0842,1.2216 2,1.5 18.1714,0.8287 36.1714,0.662 54,-0.5 0.9916,0.1716 1.6583,-0.1618 2,-1 0.667,0 1.333,0 2,0 0.333,0 0.667,0 1,0 -0.381,1.4311 -1.381,2.2645 -3,2.5 -19.3333,0.6667 -38.6667,0.6667 -58,0 -1.256,-0.4169 -1.9226,-1.2502 -2,-2.5 z" id="path202"/>
  </g>
  <g id="g203">
    <path fill="#9aa0a6" d="m 41.5,92.5 c 0.6667,0 1.3333,0 2,0 0.6667,0 1.3333,0 2,0 17.1586,0.9967 34.492,1.33 52,1 -17.8286,1.162 -35.8286,1.3287 -54,0.5 -0.9158,-0.2784 -1.5825,-0.7784 -2,-1.5 z" id="path203"/>
  </g>
  <g id="g204">
    <path fill="#259c59" d="m 131.5,62.5 c 0.996,-0.0858 1.829,0.2476 2.5,1 0.333,1.3333 0.667,2.6667 1,4 0.333,10.3333 0.667,20.6667 1,31 1.646,-1.5548 1.979,-3.2215 1,-5 0.671,-0.7524 1.504,-1.0858 2.5,-1 -1.488,4.8602 -2.321,9.86 -2.5,15 -1.372,1.41 -2.205,3.077 -2.5,5 -1.442,1.32 -2.108,2.986 -2,5 -1,0.667 -2,1.333 -3,2 0.48,-4.627 2.314,-8.627 5.5,-12 0.667,-2.667 0.667,-5.333 0,-8 -3.268,4.094 -5.268,8.76 -6,14 -2.324,1.307 -3.657,3.307 -4,6 -1.992,1.165 -3.825,2.498 -5.5,4 0.585,-2.422 2.085,-4.089 4.5,-5 0.49,-1.293 0.657,-2.627 0.5,-4 3.273,-1.096 4.939,-3.429 5,-7 -0.157,-1.373 0.01,-2.707 0.5,-4 3.905,-3.8508 5.405,-8.5175 4.5,-14 0.758,-9.272 -0.242,-18.272 -3,-27 z" id="path204"/>
  </g>
  <g id="g205">
    <path fill="#323e4a" d="m 102.5,96.5 c -0.418,0.7216 -1.084,1.2216 -2,1.5 -19.3305,0.5 -38.6638,0.6666 -58,0.5 -1.291,0.2373 -2.291,-0.096 -3,-1 21.0333,0.2994 42.0333,-0.0339 63,-1 z" id="path205"/>
  </g>
  <g id="g206">
    <path fill="#232f3b" d="m 104.5,94.5 c 0.363,2.4115 -0.637,3.9115 -3,4.5 -19.8376,0.8291 -39.5043,0.6624 -59,-0.5 19.3362,0.1666 38.6695,0 58,-0.5 0.916,-0.2784 1.582,-0.7784 2,-1.5 0.667,-0.6667 1.333,-1.3333 2,-2 z" id="path206"/>
  </g>
  <g id="g207">
    <path fill="#d7ede1" d="m 129.5,88.5 c -0.799,2.9299 -1.132,5.9299 -1,9 -0.979,3.125 -1.313,6.458 -1,10 -0.992,-0.172 -1.658,0.162 -2,1 -1.109,0.057 -2.109,0.39 -3,1 1.002,-1.511 1.669,-3.178 2,-5 0.722,-0.418 1.222,-1.084 1.5,-2 0.76,-4.319 1.427,-8.6523 2,-13 0.383,-0.556 0.883,-0.8893 1.5,-1 z" id="path207"/>
  </g>
  <g id="g208">
    <path fill="#77c098" d="m 132.5,94.5 c 0.227,2.4328 -0.773,4.0994 -3,5 0,-0.6667 0,-1.3333 0,-2 0.6,-1.4002 1.6,-2.4002 3,-3 z" id="path208"/>
  </g>
  <g id="g209">
    <path fill="#51b07a" d="m 134.5,89.5 c 0.905,5.4825 -0.595,10.1492 -4.5,14 -0.49,1.293 -0.657,2.627 -0.5,4 -0.333,0 -0.667,0 -1,0 -0.306,-2.885 0.027,-5.552 1,-8 2.227,-0.9006 3.227,-2.5672 3,-5 0.667,-1.6667 1.333,-3.3333 2,-5 z" id="path209"/>
  </g>
  <g id="g210">
    <path fill="#4cae78" d="m 139.5,92.5 c 0.333,0 0.667,0 1,0 0.333,0 0.667,0 1,0 -1.287,3.198 -1.953,6.5314 -2,10 -1.081,3.127 -1.747,6.46 -2,10 -0.333,0 -0.667,0 -1,0 -0.667,0 -1.333,0 -2,0 0.295,-1.923 1.128,-3.59 2.5,-5 0.179,-5.14 1.012,-10.1398 2.5,-15 z" id="path210"/>
  </g>
  <g id="g211">
    <path fill="#80c59f" d="m -0.5,97.5 c 1,0 2,0 3,0 0,1.6667 0,3.333 0,5 -1.22813,-0.806 -2.228127,-1.806 -3,-3 0,-0.6667 0,-1.3333 0,-2 z" id="path211"/>
  </g>
  <g id="g212">
    <path fill="#a3d5b9" d="m 128.5,97.5 c 0.333,0 0.667,0 1,0 0,0.6667 0,1.3333 0,2 -0.973,2.448 -1.306,5.115 -1,8 -0.333,0 -0.667,0 -1,0 -0.313,-3.542 0.021,-6.875 1,-10 z" id="path212"/>
  </g>
  <g id="g213">
    <path fill="#9dd3b5" d="m 142.5,99.5 c -1.47,2.818 -2.47,5.818 -3,9 0,1.333 0,2.667 0,4 -0.667,0 -1.333,0 -2,0 0.253,-3.54 0.919,-6.873 2,-10 0.6,-1.4 1.6,-2.4 3,-3 z" id="path213"/>
  </g>
  <g id="g214">
    <path fill="#55b380" d="m 9.5,97.5 c 1.109,0.0569 2.109,0.3902 3,1 0,0.3333 0,0.6667 0,1 0,1.667 0,3.333 0,5 -1.2362,-2.149 -2.2362,-4.482 -3,-7 z" id="path214"/>
  </g>
  <g id="g215">
    <path fill="#10924a" d="m 7.5,109.5 c -0.83825,-0.342 -1.17158,-1.008 -1,-2 -0.16409,-2.687 0.00258,-5.354 0.5,-8 0.61524,1.616 1.61524,2.949 3,4 0.4955,1.973 0.6621,3.973 0.5,6 -1,0 -2,0 -3,0 z" id="path215"/>
  </g>
  <g id="g216">
    <path fill="#9cd2b4" d="m -0.5,99.5 c 0.771873,1.194 1.77187,2.194 3,3 0.66667,1.667 1.33333,3.333 2,5 0,0.667 0,1.333 0,2 0,1 0,2 0,3 -0.66667,0 -1.33333,0 -2,0 0,-1.333 0,-2.667 0,-4 0.58382,-2.785 -0.41618,-4.452 -3,-5 0,-1.333 0,-2.667 0,-4 z" id="path216"/>
  </g>
  <g id="g217">
    <path fill="#57b27f" d="m 2.5,97.5 c 0.72158,0.4175 1.22158,1.0842 1.5,2 0.49742,2.646 0.66409,5.313 0.5,8 -0.66667,-1.667 -1.33333,-3.333 -2,-5 0,-1.667 0,-3.3333 0,-5 z" id="path217"/>
  </g>
  <g id="g218">
    <path fill="#edf6f1" d="m 94.5,9.5 c 3.0219,0.30404 6.022,0.804 9,1.5 2.097,3.2103 5.097,5.0436 9,5.5 5.7,5.8658 11.866,11.1991 18.5,16 3.622,5.1491 6.955,10.4825 10,16 0.953,2.9318 1.453,5.9318 1.5,9 1.624,-0.1399 2.79,0.5267 3.5,2 0.667,14.6667 0.667,29.3333 0,44 -2.757,7.332 -6.257,14.332 -10.5,21 -3.035,1.394 -5.035,3.727 -6,7 -2.539,3.037 -5.206,5.87 -8,8.5 -1.525,1.009 -3.192,1.509 -5,1.5 0.149,1.052 -0.017,2.052 -0.5,3 -1.816,0.829 -3.649,1.663 -5.5,2.5 -2.199,3.724 -5.533,5.39 -10,5 -0.5779,1.417 -1.5779,2.25 -3,2.5 -1.6667,0 -3.3333,0 -5,0 0.6667,-0.667 1.3333,-1.333 2,-2 3.0779,-0.12 5.745,-1.12 8,-3 0.992,0.172 1.658,-0.162 2,-1 3.062,-1.192 6.062,-2.692 9,-4.5 1.577,-3.08 3.91,-5.247 7,-6.5 3.895,-1.23 5.895,-3.897 6,-8 0.739,0.131 1.406,-0.036 2,-0.5 1.918,-2.731 3.918,-5.231 6,-7.5 2.517,-2.519 4.183,-5.519 5,-9 0,-1.333 0,-2.667 0,-4 0.708,-1.878 1.874,-3.545 3.5,-5 2.433,-12.888 3.1,-25.888 2,-39 -3.261,-8.4259 -6.927,-16.7592 -11,-25 -1.743,-1.8211 -3.243,-3.8211 -4.5,-6 -0.825,-0.8857 -1.825,-1.219 -3,-1 -0.676,-4.0791 -3.009,-6.0791 -7,-6 -1.679,-2.6952 -3.679,-5.1952 -6,-7.5 -1.293,-0.49 -2.627,-0.6567 -4,-0.5 -1.419,-0.9511 -3.085,-1.2845 -5,-1 0,-0.3333 0,-0.6667 0,-1 -0.011,-1.5174 -0.677,-2.6841 -2,-3.5 -2.9757,-0.7048 -5.6423,-1.8714 -8,-3.5 z" id="path218"/>
  </g>
  <g id="g219">
    <path fill="#8f949b" d="m 29.5,102.5 c 1,0 2,0 3,0 24.8278,0.998 49.8278,1.331 75,1 0,0.333 0,0.667 0,1 -24.1609,0.998 -48.4943,1.331 -73,1 -0.6667,0 -1.3333,0 -2,0 -1.1935,-0.772 -2.1935,-1.772 -3,-3 z" id="path219"/>
  </g>
  <g id="g220">
    <path fill="#89c9a6" d="m 12.5,99.5 c 0.6667,1 1.3333,2 2,3 0,1.667 0,3.333 0,5 -0.6667,-1 -1.3333,-2 -2,-3 0,-1.667 0,-3.333 0,-5 z" id="path220"/>
  </g>
  <g id="g221">
    <path fill="#afb3b8" d="m 107.5,104.5 c 0.667,0 1.333,0 2,0 -0.333,1 -1,1.667 -2,2 -24.5057,0.331 -48.8391,-0.002 -73,-1 24.5057,0.331 48.8391,-0.002 73,-1 z" id="path221"/>
  </g>
  <g id="g222">
    <path fill="#bcbfc3" d="m 32.5,105.5 c 0.6667,0 1.3333,0 2,0 24.1609,0.998 48.4943,1.331 73,1 -5.81,0.99 -11.81,1.323 -18,1 -0.2475,2.358 0.4192,4.358 2,6 -0.6667,0 -1.3333,0 -2,0 -0.6667,-1.333 -1.6667,-2.333 -3,-3 -10.4869,-0.994 -21.1536,-1.328 -32,-1 -6.2496,-1.959 -12.9163,-2.626 -20,-2 -1,-0.333 -1.6667,-1 -2,-2 z" id="path222"/>
  </g>
  <g id="g223">
    <path fill="#c9e6d6" d="m -0.5,104.5 c 0,-0.333 0,-0.667 0,-1 2.58382,0.548 3.58382,2.215 3,5 -1,-1.333 -2,-2.667 -3,-4 z" id="path223"/>
  </g>
  <g id="g224">
    <path fill="#d2d4d7" d="m 34.5,107.5 c 7.0837,-0.626 13.7504,0.041 20,2 -0.0569,1.109 -0.3902,2.109 -1,3 -1.2095,0.432 -2.2095,1.099 -3,2 -1.8607,3.828 -0.5274,5.495 4,5 0,0.333 0,0.667 0,1 0,0.333 0,0.667 0,1 -2.3333,-0.667 -4.6667,-1.333 -7,-2 -0.3342,-2.688 0.3325,-5.021 2,-7 1.6765,-0.683 2.3432,-2.017 2,-4 -5.858,0.322 -11.5247,-0.011 -17,-1 z" id="path224"/>
  </g>
  <g id="g225">
    <path fill="#e1e3e5" d="m 27.5,102.5 c 0.6667,0 1.3333,0 2,0 0.8065,1.228 1.8065,2.228 3,3 0.3333,1 1,1.667 2,2 5.4753,0.989 11.142,1.322 17,1 0.3432,1.983 -0.3235,3.317 -2,4 0,-1 0,-2 0,-3 -5.3437,0.166 -10.6771,-0.001 -16,-0.5 -0.9709,-1.481 -2.3042,-2.315 -4,-2.5 -1.1005,-1.105 -1.7671,-2.438 -2,-4 z" id="path225"/>
  </g>
  <g id="g226">
    <path fill="#dcdee0" d="m 109.5,104.5 c 0.667,0 1.333,0 2,0 -1.125,1.629 -2.459,3.129 -4,4.5 -5.364,0.171 -10.6975,0.671 -16,1.5 0.5047,1.419 1.5047,2.085 3,2 0,0.333 0,0.667 0,1 0.1602,1.699 -0.0065,3.366 -0.5,5 -0.6708,0.752 -1.5041,1.086 -2.5,1 1.2416,-2.111 1.2416,-4.111 0,-6 -1.5808,-1.642 -2.2475,-3.642 -2,-6 6.19,0.323 12.19,-0.01 18,-1 1,-0.333 1.667,-1 2,-2 z" id="path226"/>
  </g>
  <g id="g227">
    <path fill="#f1f1f2" d="m 29.5,106.5 c 1.6958,0.185 3.0291,1.019 4,2.5 5.3229,0.499 10.6563,0.666 16,0.5 0,1 0,2 0,3 -1.6675,1.979 -2.3342,4.312 -2,7 -1.4468,-0.634 -2.1134,-1.801 -2,-3.5 0.8784,-1.8 1.545,-3.633 2,-5.5 -5.0111,0.166 -10.0111,-0.001 -15,-0.5 -1.2101,-1.039 -2.2101,-2.206 -3,-3.5 z" id="path227"/>
  </g>
  <g id="g228">
    <path fill="#abafb4" d="m 54.5,109.5 c 10.8464,-0.328 21.5131,0.006 32,1 -10.7208,-0.642 -21.0541,0.025 -31,2 -0.3333,0 -0.6667,0 -1,0 -0.3333,0 -0.6667,0 -1,0 0.6098,-0.891 0.9431,-1.891 1,-3 z" id="path228"/>
  </g>
  <g id="g229">
    <path fill="#f2f2f3" d="m 114.5,102.5 c 0.333,0 0.667,0 1,0 -2.082,2.269 -4.082,4.769 -6,7.5 -5.433,-0.118 -10.4325,0.715 -15,2.5 -1.4953,0.085 -2.4953,-0.581 -3,-2 5.3025,-0.829 10.636,-1.329 16,-1.5 1.541,-1.371 2.875,-2.871 4,-4.5 1.527,0.073 2.527,-0.594 3,-2 z" id="path229"/>
  </g>
  <g id="g230">
    <path fill="#43a96f" d="m 4.5,107.5 c 0.66667,0 1.33333,0 2,0 -0.17158,0.992 0.16175,1.658 1,2 1.55071,2.413 2.21738,5.079 2,8 -0.66667,-1 -1.33333,-2 -2,-3 -0.61028,-1.934 -1.61028,-3.601 -3,-5 0,-0.667 0,-1.333 0,-2 z" id="path230"/>
  </g>
  <g id="g231">
    <path fill="#b0dbc4" d="m 14.5,107.5 c 0.6667,0 1.3333,0 2,0 2.0323,0.548 3.0323,1.881 3,4 0,1 0,2 0,3 -0.6667,-0.667 -1.3333,-1.333 -2,-2 0,-1 0,-2 0,-3 -1.6788,0.215 -2.6788,-0.452 -3,-2 z" id="path231"/>
  </g>
  <g id="g232">
    <path fill="#999da3" d="m 86.5,110.5 c 1.3333,0.667 2.3333,1.667 3,3 -0.6667,0 -1.3333,0 -2,0 -10.4869,-0.994 -21.1536,-1.328 -32,-1 9.9459,-1.975 20.2792,-2.642 31,-2 z" id="path232"/>
  </g>
  <g id="g233">
    <path fill="#b2dcc4" d="m 125.5,108.5 c -1.581,1.642 -2.247,3.642 -2,6 -0.333,0 -0.667,0 -1,0 0,-0.667 0,-1.333 0,-2 0,-1 0,-2 0,-3 0.891,-0.61 1.891,-0.943 3,-1 z" id="path233"/>
  </g>
  <g id="g234">
    <path fill="#84c7a2" d="m 127.5,107.5 c -1.258,2.187 -2.258,4.52 -3,7 -0.333,0 -0.667,0 -1,0 -0.247,-2.358 0.419,-4.358 2,-6 0.342,-0.838 1.008,-1.172 2,-1 z" id="path234"/>
  </g>
  <g id="g235">
    <path fill="#5db584" d="m 12.5,104.5 c 0.6667,1 1.3333,2 2,3 0.3212,1.548 1.3212,2.215 3,2 0,1 0,2 0,3 -1.3221,0.17 -2.4887,-0.163 -3.5,-1 -1.2022,-2.177 -1.7022,-4.511 -1.5,-7 z" id="path235"/>
  </g>
  <g id="g236">
    <path fill="#48ab73" d="m 127.5,107.5 c 0.333,0 0.667,0 1,0 0.333,0 0.667,0 1,0 -0.061,3.571 -1.727,5.904 -5,7 0.742,-2.48 1.742,-4.813 3,-7 z" id="path236"/>
  </g>
  <g id="g237">
    <path fill="#676b73" d="m 54.5,112.5 c 0.3333,0 0.6667,0 1,0 10.8464,-0.328 21.5131,0.006 32,1 -10.6719,-0.167 -21.3385,0 -32,0.5 -0.8366,1.011 -1.17,2.178 -1,3.5 11,0 22,0 33,0 0,0.333 0,0.667 0,1 -10.8206,0.995 -21.8206,1.328 -33,1 -0.6667,-0.667 -1.3333,-1.333 -2,-2 -0.1085,-2.014 0.5582,-3.68 2,-5 z" id="path237"/>
  </g>
  <g id="g238">
    <path fill="#77c198" d="m 4.5,109.5 c 1.38972,1.399 2.38972,3.066 3,5 -0.66667,0 -1.33333,0 -2,0 -0.83825,-0.342 -1.17158,-1.008 -1,-2 0,-1 0,-2 0,-3 z" id="path238"/>
  </g>
  <g id="g239">
    <path fill="#95999e" d="m 53.5,112.5 c 0.3333,0 0.6667,0 1,0 -1.4418,1.32 -2.1085,2.986 -2,5 -1.5481,-0.321 -2.2148,-1.321 -2,-3 0.7905,-0.901 1.7905,-1.568 3,-2 z" id="path239"/>
  </g>
  <g id="g240">
    <path fill="#6fbd91" d="m 134.5,112.5 c 0.667,0 1.333,0 2,0 -1.442,1.32 -2.108,2.986 -2,5 -0.667,0.667 -1.333,1.333 -2,2 0,-0.667 0,-1.333 0,-2 -0.108,-2.014 0.558,-3.68 2,-5 z" id="path240"/>
  </g>
  <g id="g241">
    <path fill="#ebf6f0" d="m -0.5,104.5 c 1,1.333 2,2.667 3,4 0,1.333 0,2.667 0,4 -0.14597,3.054 1.18737,5.054 4,6 0.66667,0 1,0.333 1,1 -0.13078,2.867 1.20256,4.533 4,5 -0.5838,2.785 0.4162,4.452 3,5 0.5819,1.431 1.4152,2.764 2.5,4 0.6708,0.752 1.5041,1.086 2.5,1 0.6098,0.891 0.9431,1.891 1,3 -3.8178,-1.3 -6.9845,-3.633 -9.5,-7 -0.3243,-3.488 -2.15764,-5.488 -5.5,-6 0.15668,-1.373 -0.00999,-2.707 -0.5,-4 -2.04297,-1.079 -3.3763,-2.746 -4,-5 -0.186177,-2.536 -0.686177,-4.869 -1.5,-7 0,-1.333 0,-2.667 0,-4 z" id="path241"/>
  </g>
  <g id="g242">
    <path fill="#d2eadd" d="m 2.5,112.5 c 0.66667,0 1.33333,0 2,0 -0.17158,0.992 0.16175,1.658 1,2 0.33333,1.333 0.66667,2.667 1,4 -2.81263,-0.946 -4.14597,-2.946 -4,-6 z" id="path242"/>
  </g>
  <g id="g243">
    <path fill="#6ab98e" d="m 17.5,112.5 c 0.6667,0.667 1.3333,1.333 2,2 0,1 0,2 0,3 -0.6667,0 -1.3333,0 -2,0 0,-1.667 0,-3.333 0,-5 z" id="path243"/>
  </g>
  <g id="g244">
    <path fill="#eef7f2" d="m 21.5,112.5 c 1.175,-0.219 2.175,0.114 3,1 1.2045,5.104 3.8712,9.104 8,12 -1.109,-0.057 -2.109,-0.39 -3,-1 -1,-0.667 -2,-1.333 -3,-2 -1.6961,-3.35 -3.3627,-6.683 -5,-10 z" id="path244"/>
  </g>
  <g id="g245">
    <path fill="#6b6e75" d="m 87.5,113.5 c 0.6667,0 1.3333,0 2,0 0.4227,2.281 -0.244,3.948 -2,5 0,-0.333 0,-0.667 0,-1 0,-1.333 0,-2.667 0,-4 z" id="path245"/>
  </g>
  <g id="g246">
    <path fill="#d4ebde" d="m 122.5,112.5 c 0,0.667 0,1.333 0,2 -1.306,1.973 -2.973,3.639 -5,5 -0.204,-3.781 1.463,-6.114 5,-7 z" id="path246"/>
  </g>
  <g id="g247">
    <path fill="#a4d6ba" d="m 136.5,112.5 c 0.333,0 0.667,0 1,0 -0.61,1.934 -1.61,3.601 -3,5 -0.108,-2.014 0.558,-3.68 2,-5 z" id="path247"/>
  </g>
  <g id="g248">
    <path fill="#d7ece0" d="m 137.5,112.5 c 0.667,0 1.333,0 2,0 -0.817,3.481 -2.483,6.481 -5,9 0,-1.333 0,-2.667 0,-4 1.39,-1.399 2.39,-3.066 3,-5 z" id="path248"/>
  </g>
  <g id="g249">
    <path fill="#c3e3d1" d="m 19.5,111.5 c 0.6667,0.333 1.3333,0.667 2,1 1.6373,3.317 3.3039,6.65 5,10 -0.6667,0 -1.3333,0 -2,0 0.073,-1.527 -0.5937,-2.527 -2,-3 -0.3212,-1.548 -1.3212,-2.215 -3,-2 0,-1 0,-2 0,-3 0,-1 0,-2 0,-3 z" id="path249"/>
  </g>
  <g id="g250">
    <path fill="#2f343f" d="m 87.5,113.5 c 0,1.333 0,2.667 0,4 -11,0 -22,0 -33,0 -0.17,-1.322 0.1634,-2.489 1,-3.5 10.6615,-0.5 21.3281,-0.667 32,-0.5 z" id="path250"/>
  </g>
  <g id="g251">
    <path fill="#95cfae" d="m 5.5,114.5 c 0.66667,0 1.33333,0 2,0 0.66667,1 1.33333,2 2,3 0,0.667 0,1.333 0,2 0,0.667 0,1.333 0,2 -0.66667,-0.667 -1.33333,-1.333 -2,-2 0,-0.667 -0.33333,-1 -1,-1 -0.33333,-1.333 -0.66667,-2.667 -1,-4 z" id="path251"/>
  </g>
  <g id="g252">
    <path fill="#a9acb1" d="m 89.5,113.5 c 0.6667,0 1.3333,0 2,0 1.2416,1.889 1.2416,3.889 0,6 -0.9916,-0.172 -1.6583,0.162 -2,1 -11.6667,0 -23.3333,0 -35,0 0,-0.333 0,-0.667 0,-1 11.1794,0.328 22.1794,-0.005 33,-1 1.756,-1.052 2.4227,-2.719 2,-5 z" id="path252"/>
  </g>
  <g id="g253">
    <path fill="#b4ddc7" d="m 7.5,119.5 c 0.66667,0.667 1.33333,1.333 2,2 0.6667,1 1.3333,2 2,3 -2.79744,-0.467 -4.13078,-2.133 -4,-5 z" id="path253"/>
  </g>
  <g id="g254">
    <path fill="#7dc59d" d="m 9.5,119.5 c 0.9511,1.618 2.2844,2.951 4,4 0.7458,1.236 1.0792,2.57 1,4 -1.3999,-0.6 -2.3999,-1.6 -3,-3 -0.6667,-1 -1.3333,-2 -2,-3 0,-0.667 0,-1.333 0,-2 z" id="path254"/>
  </g>
  <g id="g255">
    <path fill="#88c9a5" d="m 132.5,119.5 c 0.262,1.478 -0.071,2.811 -1,4 -1.716,1.049 -3.049,2.382 -4,4 0.84,-3.176 2.507,-5.842 5,-8 z" id="path255"/>
  </g>
  <g id="g256">
    <path fill="#40a86e" d="m 9.5,117.5 c 1.9113,0.575 3.578,1.575 5,3 1.9765,3.653 3.9765,7.319 6,11 2.2695,0.505 3.6028,1.838 4,4 -0.6667,-0.333 -1.3333,-0.667 -2,-1 -0.709,-0.904 -1.709,-1.237 -3,-1 -0.1596,-1.653 -0.8263,-2.986 -2,-4 -0.4731,-1.406 -1.4731,-2.073 -3,-2 0.0792,-1.43 -0.2542,-2.764 -1,-4 -1.7156,-1.049 -3.0489,-2.382 -4,-4 0,-0.667 0,-1.333 0,-2 z" id="path256"/>
  </g>
  <g id="g257">
    <path fill="#eaebec" d="m 94.5,113.5 c 1.1225,1.788 1.2891,3.788 0.5,6 -1.7448,1.456 -3.5781,2.789 -5.5,4 -12.3198,1.166 -24.6532,1.333 -37,0.5 -1.7395,-1.517 -3.4062,-3.017 -5,-4.5 2.3333,0.667 4.6667,1.333 7,2 11.1591,1.159 22.4924,1.326 34,0.5 0.556,-0.383 0.8893,-0.883 1,-1.5 0.3417,-0.838 1.0084,-1.172 2,-1 0.9959,0.086 1.8292,-0.248 2.5,-1 0.4935,-1.634 0.6602,-3.301 0.5,-5 z" id="path257"/>
  </g>
  <g id="g258">
    <path fill="#42a970" d="m 132.5,117.5 c 0,0.667 0,1.333 0,2 -2.493,2.158 -4.16,4.824 -5,8 -1.527,-0.073 -2.527,0.594 -3,2 -0.667,0.333 -1.333,0.667 -2,1 0.233,-1.562 0.9,-2.895 2,-4 1.434,-2.547 3.1,-4.881 5,-7 1,-0.667 2,-1.333 3,-2 z" id="path258"/>
  </g>
  <g id="g259">
    <path fill="#bbe0cc" d="m 134.5,117.5 c 0,1.333 0,2.667 0,4 -2.082,2.269 -4.082,4.769 -6,7.5 -0.594,0.464 -1.261,0.631 -2,0.5 0.333,-0.667 0.667,-1.333 1,-2 0.951,-1.618 2.284,-2.951 4,-4 0.929,-1.189 1.262,-2.522 1,-4 0.667,-0.667 1.333,-1.333 2,-2 z" id="path259"/>
  </g>
  <g id="g260">
    <path fill="#cde9d9" d="m 11.5,124.5 c 0.6001,1.4 1.6001,2.4 3,3 0,0.667 0,1.333 0,2 -2.5838,-0.548 -3.5838,-2.215 -3,-5 z" id="path260"/>
  </g>
  <g id="g261">
    <path fill="#87c9a5" d="m 14.5,127.5 c 1.5269,-0.073 2.5269,0.594 3,2 -1,0 -2,0 -3,0 0,-0.667 0,-1.333 0,-2 z" id="path261"/>
  </g>
  <g id="g262">
    <path fill="#86c8a4" d="m 127.5,127.5 c -0.333,0.667 -0.667,1.333 -1,2 -0.667,0 -1.333,0 -2,0 0.473,-1.406 1.473,-2.073 3,-2 z" id="path262"/>
  </g>
  <g id="g263">
    <path fill="#c5e5d4" d="m 14.5,129.5 c 1,0 2,0 3,0 -0.2709,1.88 0.3958,3.213 2,4 0,0.333 0,0.667 0,1 -0.9959,0.086 -1.8292,-0.248 -2.5,-1 -1.0848,-1.236 -1.9181,-2.569 -2.5,-4 z" id="path263"/>
  </g>
  <g id="g264">
    <path fill="#8bcba7" d="m 17.5,129.5 c 1.1737,1.014 1.8404,2.347 2,4 -1.6042,-0.787 -2.2709,-2.12 -2,-4 z" id="path264"/>
  </g>
  <g id="g265">
    <path fill="#7ec49e" d="m 124.5,129.5 c 0.215,1.679 -0.452,2.679 -2,3 0,-0.667 0,-1.333 0,-2 0.667,-0.333 1.333,-0.667 2,-1 z" id="path265"/>
  </g>
  <g id="g266">
    <path fill="#53b17d" d="m 120.5,132.5 c -0.333,0.667 -0.667,1.333 -1,2 -0.667,0.333 -1.333,0.667 -2,1 0,-2 1,-3 3,-3 z" id="path266"/>
  </g>
  <g id="g267">
    <path fill="#86c8a4" d="m 120.5,132.5 c 0.667,0 1.333,0 2,0 0.172,0.992 -0.162,1.658 -1,2 -0.667,0 -1.333,0 -2,0 0.333,-0.667 0.667,-1.333 1,-2 z" id="path267"/>
  </g>
  <g id="g268">
    <path fill="#d1eadc" d="m 124.5,129.5 c 0.667,0 1.333,0 2,0 -0.105,4.103 -2.105,6.77 -6,8 0.057,-1.109 0.39,-2.109 1,-3 0.838,-0.342 1.172,-1.008 1,-2 1.548,-0.321 2.215,-1.321 2,-3 z" id="path268"/>
  </g>
  <g id="g269">
    <path fill="#a1d4b8" d="m 19.5,134.5 c 0,-0.333 0,-0.667 0,-1 1.291,-0.237 2.291,0.096 3,1 0,0.667 0,1.333 0,2 -0.7223,-1.051 -1.7223,-1.718 -3,-2 z" id="path269"/>
  </g>
  <g id="g270">
    <path fill="#c8e6d5" d="m 19.5,134.5 c 1.2777,0.282 2.2777,0.949 3,2 0.3417,0.838 1.0084,1.172 2,1 0.4731,1.406 1.4731,2.073 3,2 0,0.667 0,1.333 0,2 -2.4962,-1.08 -4.8295,-2.414 -7,-4 -0.0569,-1.109 -0.3902,-2.109 -1,-3 z" id="path270"/>
  </g>
  <g id="g271">
    <path fill="#80c69f" d="m 22.5,134.5 c 0.6667,0.333 1.3333,0.667 2,1 0,0.667 0,1.333 0,2 -0.9916,0.172 -1.6583,-0.162 -2,-1 0,-0.667 0,-1.333 0,-2 z" id="path271"/>
  </g>
  <g id="g272">
    <path fill="#82c5a0" d="m 119.5,134.5 c 0.215,1.679 -0.452,2.679 -2,3 0,-0.667 0,-1.333 0,-2 0.667,-0.333 1.333,-0.667 2,-1 z" id="path272"/>
  </g>
  <g id="g273">
    <path fill="#33a164" d="m 124.5,126.5 c -1.1,1.105 -1.767,2.438 -2,4 0,0.667 0,1.333 0,2 -0.667,0 -1.333,0 -2,0 -2,0 -3,1 -3,3 0,0.667 0,1.333 0,2 -2.014,-0.108 -3.68,0.558 -5,2 -1.667,0.667 -3.333,1.333 -5,2 1.981,-3.449 4.981,-5.449 9,-6 -0.116,-3.41 1.55,-4.744 5,-4 -0.584,-2.785 0.416,-4.452 3,-5 z" id="path273"/>
  </g>
  <g id="g274">
    <path fill="#87c9a4" d="m 24.5,137.5 c 0.6667,0 1.3333,0 2,0 0.3333,0.667 0.6667,1.333 1,2 -1.5269,0.073 -2.5269,-0.594 -3,-2 z" id="path274"/>
  </g>
  <g id="g275">
    <path fill="#5bb583" d="m 26.5,137.5 c 1.5269,-0.073 2.5269,0.594 3,2 -0.6667,0 -1.3333,0 -2,0 -0.3333,-0.667 -0.6667,-1.333 -1,-2 z" id="path275"/>
  </g>
  <g id="g276">
    <path fill="#eaf5ef" d="m 20.5,137.5 c 2.1705,1.586 4.5038,2.92 7,4 0.9006,2.227 2.5672,3.227 5,3 0.6112,2.275 1.9446,3.941 4,5 -3.4914,0.017 -6.1581,-1.483 -8,-4.5 -0.948,-0.483 -1.948,-0.649 -3,-0.5 0,-1 0,-2 0,-3 -3.4496,0.744 -5.1162,-0.59 -5,-4 z" id="path276"/>
  </g>
  <g id="g277">
    <path fill="#9dd3b5" d="m 27.5,139.5 c 0.6667,0 1.3333,0 2,0 0,1 0,2 0,3 2.0529,-0.098 3.7196,0.569 5,2 -0.6667,0 -1.3333,0 -2,0 -2.4328,0.227 -4.0994,-0.773 -5,-3 0,-0.667 0,-1.333 0,-2 z" id="path277"/>
  </g>
  <g id="g278">
    <path fill="#56b37f" d="m 29.5,139.5 c 2.5047,2.215 5.5047,3.381 9,3.5 1.3217,1.976 2.9884,3.476 5,4.5 -1.3333,0 -2.6667,0 -4,0 -0.844,-2.259 -2.5107,-3.259 -5,-3 -1.2804,-1.431 -2.9471,-2.098 -5,-2 0,-1 0,-2 0,-3 z" id="path278"/>
  </g>
  <g id="g279">
    <path fill="#85c7a2" d="m 117.5,137.5 c -2.141,1.312 -3.808,3.145 -5,5.5 -0.948,0.483 -1.948,0.649 -3,0.5 1,-1.333 2,-2.667 3,-4 1.32,-1.442 2.986,-2.108 5,-2 z" id="path279"/>
  </g>
  <g id="g280">
    <path fill="#48ab73" d="m 112.5,139.5 c -1,1.333 -2,2.667 -3,4 -3.39,-0.385 -5.723,0.948 -7,4 -2.6667,0 -5.3333,0 -8,0 4.4388,-1.719 8.772,-3.719 13,-6 1.667,-0.667 3.333,-1.333 5,-2 z" id="path280"/>
  </g>
  <g id="g281">
    <path fill="#189650" d="m 129.5,119.5 c -1.9,2.119 -3.566,4.453 -5,7 -2.584,0.548 -3.584,2.215 -3,5 -3.45,-0.744 -5.116,0.59 -5,4 -4.019,0.551 -7.019,2.551 -9,6 -4.228,2.281 -8.5612,4.281 -13,6 -1.6667,0 -3.3333,0 -5,0 -1.6667,0.667 -3.3333,1.333 -5,2 0.3039,-0.65 0.6373,-1.317 1,-2 -5,-0.333 -10,-0.667 -15,-1 -5.3806,0.006 -10.3806,0.672 -15,2 -1,0 -2,0 -3,0 -2.7869,-0.977 -5.7869,-1.31 -9,-1 -2.0116,-1.024 -3.6783,-2.524 -5,-4.5 -3.4953,-0.119 -6.4953,-1.285 -9,-3.5 -0.4731,-1.406 -1.4731,-2.073 -3,-2 -0.6667,0 -1.3333,0 -2,0 0,-0.667 0,-1.333 0,-2 -0.3972,-2.162 -1.7305,-3.495 -4,-4 -2.0235,-3.681 -4.0235,-7.347 -6,-11 -0.5476,-1.894 -1.5476,-3.56 -3,-5 1.5453,-0.952 3.212,-1.285 5,-1 -0.2373,1.291 0.096,2.291 1,3 1.2588,2.104 2.7588,4.104 4.5,6 0.6708,0.752 1.5041,1.086 2.5,1 1.3443,3.697 4.0109,6.03 8,7 -0.219,1.175 0.1143,2.175 1,3 2.8067,2.169 5.8067,3.835 9,5 1.6667,0 3.3333,0 5,0 0.2822,1.278 0.9489,2.278 2,3 0.847,1.466 2.1803,2.3 4,2.5 11.6667,0.667 23.3333,0.667 35,0 1.3584,-0.934 2.6917,-1.768 4,-2.5 3.2193,-1.138 6.5526,-1.971 10,-2.5 5.539,-5.044 11.206,-9.877 17,-14.5 0,-0.667 0,-1.333 0,-2 1.675,-1.502 3.508,-2.835 5.5,-4 0.343,-2.693 1.676,-4.693 4,-6 0.732,-5.24 2.732,-9.906 6,-14 0.667,2.667 0.667,5.333 0,8 -3.186,3.373 -5.02,7.373 -5.5,12 z" id="path281"/>
  </g>
  <g id="g282">
    <path fill="#2ea061" d="m 49.5,142.5 c 1,0 2,0 3,0 0.4175,0.722 1.0842,1.222 2,1.5 5.5,0.167 11,0.333 16.5,0.5 5.8762,-0.005 11.3762,-0.671 16.5,-2 1.6667,0 3.3333,0 5,0 -1.3083,0.732 -2.6416,1.566 -4,2.5 -11.6667,0.667 -23.3333,0.667 -35,0 -1.8197,-0.2 -3.153,-1.034 -4,-2.5 z" id="path282"/>
  </g>
  <g id="g283">
    <path fill="#61b788" d="m 49.5,139.5 c 1,0 2,0 3,0 0.843,1.673 2.1763,2.84 4,3.5 8.8433,0.824 17.5099,0.657 26,-0.5 1.6667,0 3.3333,0 5,0 -5.1238,1.329 -10.6238,1.995 -16.5,2 -5.5,-0.167 -11,-0.333 -16.5,-0.5 -0.9158,-0.278 -1.5825,-0.778 -2,-1.5 -0.8065,-1.228 -1.8065,-2.228 -3,-3 z" id="path283"/>
  </g>
  <g id="g284">
    <path fill="#92cead" d="m 52.5,139.5 c 0.6667,0 1.3333,0 2,0 2.1174,2.155 4.784,3.155 8,3 6.6667,0 13.3333,0 20,0 -8.4901,1.157 -17.1567,1.324 -26,0.5 -1.8237,-0.66 -3.157,-1.827 -4,-3.5 z" id="path284"/>
  </g>
  <g id="g285">
    <path fill="#5db485" d="m 92.5,139.5 c 0,1 0,2 0,3 -1.6667,0 -3.3333,0 -5,0 0.9006,-2.227 2.5672,-3.227 5,-3 z" id="path285"/>
  </g>
  <g id="g286">
    <path fill="#cde9d9" d="m 89.5,137.5 c -2.712,1.128 -5.0453,2.794 -7,5 -6.6667,0 -13.3333,0 -20,0 -1,-0.667 -2,-1.333 -3,-2 6.8163,1.185 13.483,1.185 20,0 2.985,-1.945 6.3183,-2.945 10,-3 z" id="path286"/>
  </g>
  <g id="g287">
    <path fill="#b6dec8" d="m 54.5,139.5 c 1.7161,0.129 3.3828,0.462 5,1 1,0.667 2,1.333 3,2 -3.216,0.155 -5.8826,-0.845 -8,-3 z" id="path287"/>
  </g>
  <g id="g288">
    <path fill="#4eaf7a" d="m 47.5,139.5 c 0.6667,0 1.3333,0 2,0 1.1935,0.772 2.1935,1.772 3,3 -1,0 -2,0 -3,0 -1.0511,-0.722 -1.7178,-1.722 -2,-3 z" id="path288"/>
  </g>
  <g id="g289">
    <path fill="#30a060" d="m 119.5,125.5 c -5.794,4.623 -11.461,9.456 -17,14.5 -3.4474,0.529 -6.7807,1.362 -10,2.5 0,-1 0,-2 0,-3 1.9147,0.284 3.5813,-0.049 5,-1 3.664,-1.709 6.997,-3.709 10,-6 0.667,-0.333 1.333,-0.667 2,-1 3.352,-2.008 6.685,-4.008 10,-6 z" id="path289"/>
  </g>
  <g id="g290">
    <path fill="#9ad1b2" d="m 89.5,137.5 c 2.6667,0 5.3333,0 8,0 0,0.333 0,0.667 0,1 -1.4187,0.951 -3.0853,1.284 -5,1 -2.4328,-0.227 -4.0994,0.773 -5,3 -1.6667,0 -3.3333,0 -5,0 1.9547,-2.206 4.288,-3.872 7,-5 z" id="path290"/>
  </g>
  <g id="g291">
    <path fill="#e3f2ea" d="m 52.5,137.5 c 4.2945,-0.318 8.2945,0.515 12,2.5 4.9889,0.499 9.9889,0.666 15,0.5 -6.517,1.185 -13.1837,1.185 -20,0 -1.6172,-0.538 -3.2839,-0.871 -5,-1 -0.6667,0 -1.3333,0 -2,0 0,-0.667 0,-1.333 0,-2 z" id="path291"/>
  </g>
  <g id="g292">
    <path fill="#a0d4b7" d="m 47.5,137.5 c 1.6667,0 3.3333,0 5,0 0,0.667 0,1.333 0,2 -1,0 -2,0 -3,0 -0.6667,0 -1.3333,0 -2,0 0,-0.667 0,-1.333 0,-2 z" id="path292"/>
  </g>
  <g id="g293">
    <path fill="#3aa569" d="m 32.5,131.5 c 1.6131,1.192 3.2798,2.192 5,3 1.0846,2.087 2.7512,3.42 5,4 0,0.333 0,0.667 0,1 -3.1933,-1.165 -6.1933,-2.831 -9,-5 -0.8857,-0.825 -1.219,-1.825 -1,-3 z" id="path293"/>
  </g>
  <g id="g294">
    <path fill="#70bd92" d="m 107.5,132.5 c -3.003,2.291 -6.336,4.291 -10,6 0,-0.333 0,-0.667 0,-1 2.254,-0.624 3.921,-1.957 5,-4 1.617,-0.538 3.284,-0.871 5,-1 z" id="path294"/>
  </g>
  <g id="g295">
    <path fill="#a4d5ba" d="m 102.5,133.5 c -1.079,2.043 -2.746,3.376 -5,4 0,-0.667 0,-1.333 0,-2 1.3195,-1.442 2.986,-2.108 5,-2 z" id="path295"/>
  </g>
  <g id="g296">
    <path fill="#e1f1e9" d="m 38.5,130.5 c 5.1633,1.535 9.8299,3.868 14,7 -1.6667,0 -3.3333,0 -5,0 -1,0 -2,0 -3,0 -0.6439,-2.644 -2.3106,-4.311 -5,-5 -0.3333,-0.667 -0.6667,-1.333 -1,-2 z" id="path296"/>
  </g>
  <g id="g297">
    <path fill="#7cc39c" d="m 39.5,134.5 c 1.9113,0.575 3.578,1.575 5,3 1,0 2,0 3,0 0,0.667 0,1.333 0,2 -1.6667,0 -3.3333,0 -5,0 0,-0.333 0,-0.667 0,-1 -1,-1.333 -2,-2.667 -3,-4 z" id="path297"/>
  </g>
  <g id="g298">
    <path fill="#5bb583" d="m 37.5,134.5 c 0.6667,0 1.3333,0 2,0 1,1.333 2,2.667 3,4 -2.2488,-0.58 -3.9154,-1.913 -5,-4 z" id="path298"/>
  </g>
  <g id="g299">
    <path fill="#aedac2" d="m 38.5,132.5 c 0.3333,0 0.6667,0 1,0 2.6894,0.689 4.3561,2.356 5,5 -1.422,-1.425 -3.0887,-2.425 -5,-3 -0.3333,-0.667 -0.6667,-1.333 -1,-2 z" id="path299"/>
  </g>
  <g id="g300">
    <path fill="#7dc39c" d="m 109.5,129.5 c 0,0.667 0,1.333 0,2 -0.667,0.333 -1.333,0.667 -2,1 -0.073,-1.527 0.594,-2.527 2,-3 z" id="path300"/>
  </g>
  <g id="g301">
    <path fill="#bfe1ce" d="m 110.5,127.5 c -0.333,0.667 -0.667,1.333 -1,2 -1.406,0.473 -2.073,1.473 -2,3 -1.716,0.129 -3.383,0.462 -5,1 -2.014,-0.108 -3.6805,0.558 -5,2 -0.0858,-0.996 0.2476,-1.829 1,-2.5 4.344,-1.201 8.344,-3.035 12,-5.5 z" id="path301"/>
  </g>
  <g id="g302">
    <path fill="#8ccba8" d="m 32.5,129.5 c 1.5122,1.817 3.5122,2.817 6,3 0.3333,0.667 0.6667,1.333 1,2 -0.6667,0 -1.3333,0 -2,0 -1.7202,-0.808 -3.3869,-1.808 -5,-3 0,-0.667 0,-1.333 0,-2 z" id="path302"/>
  </g>
  <g id="g303">
    <path fill="#7dc49c" d="m 110.5,127.5 c 0.667,0 1.333,0 2,0 -0.321,1.548 -1.321,2.215 -3,2 0.333,-0.667 0.667,-1.333 1,-2 z" id="path303"/>
  </g>
  <g id="g304">
    <path fill="#e6f3ec" d="m 112.5,122.5 c 0,0.667 0,1.333 0,2 -0.901,0.79 -1.568,1.79 -2,3 -3.656,2.465 -7.656,4.299 -12,5.5 -0.7524,0.671 -1.0858,1.504 -1,2.5 0,0.667 0,1.333 0,2 -2.6667,0 -5.3333,0 -8,0 1.8691,-0.665 3.8691,-1.331 6,-2 0.6279,-1.758 1.6279,-3.258 3,-4.5 3.863,-1.187 7.53,-2.853 11,-5 0.474,-1.729 1.474,-2.895 3,-3.5 z" id="path304"/>
  </g>
  <g id="g305">
    <path fill="#8ac9a6" d="m 29.5,127.5 c 1.5269,-0.073 2.5269,0.594 3,2 -1.5269,0.073 -2.5269,-0.594 -3,-2 z" id="path305"/>
  </g>
  <g id="g306">
    <path fill="#3da76c" d="m 119.5,123.5 c 0,0.667 0,1.333 0,2 -3.315,1.992 -6.648,3.992 -10,6 0,-0.667 0,-1.333 0,-2 1.679,0.215 2.679,-0.452 3,-2 0.992,0.172 1.658,-0.162 2,-1 1.501,-1.252 3.168,-2.252 5,-3 z" id="path306"/>
  </g>
  <g id="g307">
    <path fill="#41a970" d="m 24.5,124.5 c 0.6667,0 1.3333,0 2,0 -0.073,1.527 0.5937,2.527 2,3 0.3333,0 0.6667,0 1,0 0.4731,1.406 1.4731,2.073 3,2 0,0.667 0,1.333 0,2 -3.9891,-0.97 -6.6557,-3.303 -8,-7 z" id="path307"/>
  </g>
  <g id="g308">
    <path fill="#bfe2ce" d="m 112.5,124.5 c 0,1 0,2 0,3 -0.667,0 -1.333,0 -2,0 0.432,-1.21 1.099,-2.21 2,-3 z" id="path308"/>
  </g>
  <g id="g309">
    <path fill="#cfe9db" d="m 29.5,124.5 c 0.891,0.61 1.891,0.943 3,1 1.7274,2.067 3.7274,3.733 6,5 0.3333,0.667 0.6667,1.333 1,2 -0.3333,0 -0.6667,0 -1,0 -2.4878,-0.183 -4.4878,-1.183 -6,-3 -0.4731,-1.406 -1.4731,-2.073 -3,-2 0,-1 0,-2 0,-3 z" id="path309"/>
  </g>
  <g id="g310">
    <path fill="#6abc90" d="m 26.5,124.5 c 1.4063,0.473 2.073,1.473 2,3 -1.4063,-0.473 -2.073,-1.473 -2,-3 z" id="path310"/>
  </g>
  <g id="g311">
    <path fill="#88c9a5" d="m 112.5,124.5 c 0.667,0 1.333,0 2,0 0,0.667 0,1.333 0,2 -0.342,0.838 -1.008,1.172 -2,1 0,-1 0,-2 0,-3 z" id="path311"/>
  </g>
  <g id="g312">
    <path fill="#59b382" d="m 122.5,114.5 c 0.333,0 0.667,0 1,0 0.333,0 0.667,0 1,0 0.157,1.373 -0.01,2.707 -0.5,4 -2.415,0.911 -3.915,2.578 -4.5,5 -1.832,0.748 -3.499,1.748 -5,3 0,-0.667 0,-1.333 0,-2 1.21,-0.432 2.21,-1.099 3,-2 0.951,-1.618 2.284,-2.951 4,-4 0.929,-1.189 1.262,-2.522 1,-4 z" id="path312"/>
  </g>
  <g id="g313">
    <path fill="#9bd2b3" d="m 114.5,122.5 c 1,0 2,0 3,0 -0.79,0.901 -1.79,1.568 -3,2 0,-0.667 0,-1.333 0,-2 z" id="path313"/>
  </g>
  <g id="g314">
    <path fill="#c7e6d4" d="m 112.5,122.5 c 0.667,0 1.333,0 2,0 0,0.667 0,1.333 0,2 -0.667,0 -1.333,0 -2,0 0,-0.667 0,-1.333 0,-2 z" id="path314"/>
  </g>
  <g id="g315">
    <path fill="#97d1b2" d="m 24.5,122.5 c 0.6667,0 1.3333,0 2,0 1,0.667 2,1.333 3,2 0,1 0,2 0,3 -0.3333,0 -0.6667,0 -1,0 0.073,-1.527 -0.5937,-2.527 -2,-3 -0.6667,0 -1.3333,0 -2,0 0,-0.667 0,-1.333 0,-2 z" id="path315"/>
  </g>
  <g id="g316">
    <path fill="#c8e6d6" d="m 117.5,120.5 c 0,0.667 0,1.333 0,2 -1,0 -2,0 -3,0 0.473,-1.406 1.473,-2.073 3,-2 z" id="path316"/>
  </g>
  <g id="g317">
    <path fill="#cbcdd0" d="m 54.5,120.5 c 11.6667,0 23.3333,0 35,0 -0.1107,0.617 -0.444,1.117 -1,1.5 -11.5076,0.826 -22.8409,0.659 -34,-0.5 0,-0.333 0,-0.667 0,-1 z" id="path317"/>
  </g>
  <g id="g318">
    <path fill="#83c8a2" d="m 22.5,119.5 c 1.4063,0.473 2.073,1.473 2,3 -1.5481,-0.321 -2.2148,-1.321 -2,-3 z" id="path318"/>
  </g>
  <g id="g319">
    <path fill="#40a86e" d="m 17.5,117.5 c 0.6667,0 1.3333,0 2,0 0.4731,1.406 1.4731,2.073 3,2 -0.2148,1.679 0.4519,2.679 2,3 0,0.667 0,1.333 0,2 -0.9959,0.086 -1.8292,-0.248 -2.5,-1 -1.7412,-1.896 -3.2412,-3.896 -4.5,-6 z" id="path319"/>
  </g>
  <g id="g320">
    <path fill="#7dc49c" d="m 19.5,117.5 c 1.6788,-0.215 2.6788,0.452 3,2 -1.5269,0.073 -2.5269,-0.594 -3,-2 z" id="path320"/>
  </g>
  <g id="g321">
    <path fill="#8fccaa" d="m 122.5,114.5 c 0.262,1.478 -0.071,2.811 -1,4 -1.716,1.049 -3.049,2.382 -4,4 0,-0.667 0,-1.333 0,-2 0,-0.333 0,-0.667 0,-1 2.027,-1.361 3.694,-3.027 5,-5 z" id="path321"/>
  </g>
  <g id="g322">
    <path fill="#adb0b4" d="m 50.5,114.5 c -0.2148,1.679 0.4519,2.679 2,3 0.6667,0.667 1.3333,1.333 2,2 -4.5274,0.495 -5.8607,-1.172 -4,-5 z" id="path322"/>
  </g>
  <g id="g323">
    <path fill="#8dcba9" d="m 109.5,143.5 c -1.849,1.093 -3.516,2.426 -5,4 -0.667,0 -1.333,0 -2,0 1.277,-3.052 3.61,-4.385 7,-4 z" id="path323"/>
  </g>
  <g id="g324">
    <path fill="#84c7a2" d="m 34.5,144.5 c 2.4893,-0.259 4.156,0.741 5,3 -1.9341,-0.61 -3.6007,-1.61 -5,-3 z" id="path324"/>
  </g>
  <g id="g325">
    <path fill="#0c9146" d="m 84.5,149.5 c -0.1107,0.617 -0.444,1.117 -1,1.5 -8,0.667 -16,0.667 -24,0 -1.4839,-0.662 -2.8172,-1.496 -4,-2.5 4.6194,-1.328 9.6194,-1.994 15,-2 5,0.333 10,0.667 15,1 -0.3627,0.683 -0.6961,1.35 -1,2 z" id="path325"/>
  </g>
  <g id="g326">
    <path fill="#c0e2cf" d="m 32.5,144.5 c 0.6667,0 1.3333,0 2,0 1.3993,1.39 3.0659,2.39 5,3 1,0.667 2,1.333 3,2 -2,0 -4,0 -6,0 -2.0554,-1.059 -3.3888,-2.725 -4,-5 z" id="path326"/>
  </g>
  <g id="g327">
    <path fill="#c5e5d3" d="m 119.5,134.5 c 0.667,0 1.333,0 2,0 -0.61,0.891 -0.943,1.891 -1,3 -3.09,1.253 -5.423,3.42 -7,6.5 -2.938,1.808 -5.938,3.308 -9,4.5 0,-0.333 0,-0.667 0,-1 1.484,-1.574 3.151,-2.907 5,-4 1.052,0.149 2.052,-0.017 3,-0.5 1.192,-2.355 2.859,-4.188 5,-5.5 1.548,-0.321 2.215,-1.321 2,-3 z" id="path327"/>
  </g>
  <g id="g328">
    <path fill="#7dc49c" d="m 39.5,147.5 c 1.3333,0 2.6667,0 4,0 1.3333,0.667 2.6667,1.333 4,2 -1.6667,0 -3.3333,0 -5,0 -1,-0.667 -2,-1.333 -3,-2 z" id="path328"/>
  </g>
  <g id="g329">
    <path fill="#b2dcc5" d="m 102.5,147.5 c 0.667,0 1.333,0 2,0 0,0.333 0,0.667 0,1 -0.342,0.838 -1.008,1.172 -2,1 -1.667,0 -3.3333,0 -5,0 1.6667,-0.667 3.333,-1.333 5,-2 z" id="path329"/>
  </g>
  <g id="g330">
    <path fill="#4eaf78" d="m 43.5,147.5 c 3.2131,-0.31 6.2131,0.023 9,1 1.6667,1.333 3.3333,2.667 5,4 -1,0 -2,0 -3,0 -2.1869,-1.258 -4.5202,-2.258 -7,-3 -1.3333,-0.667 -2.6667,-1.333 -4,-2 z" id="path330"/>
  </g>
  <g id="g331">
    <path fill="#e4f3ea" d="m 36.5,149.5 c 2,0 4,0 6,0 0,0.667 0,1.333 0,2 -2.5101,0.446 -4.5101,-0.22 -6,-2 z" id="path331"/>
  </g>
  <g id="g332">
    <path fill="#bce0cc" d="m 42.5,149.5 c 1.6667,0 3.3333,0 5,0 0.9446,3.487 3.2779,4.82 7,4 0.9916,-0.172 1.6583,0.162 2,1 -2.6873,0.164 -5.354,-0.003 -8,-0.5 -0.9709,-1.481 -2.3042,-2.315 -4,-2.5 -0.6667,0 -1.3333,0 -2,0 0,-0.667 0,-1.333 0,-2 z" id="path332"/>
  </g>
  <g id="g333">
    <path fill="#93ceac" d="m 47.5,149.5 c 2.4798,0.742 4.8131,1.742 7,3 0,0.333 0,0.667 0,1 -3.7221,0.82 -6.0554,-0.513 -7,-4 z" id="path333"/>
  </g>
  <g id="g334">
    <path fill="#44aa70" d="m 89.5,147.5 c 1.6667,0 3.3333,0 5,0 -3.3354,1.67 -6.6688,3.337 -10,5 1.8603,-1.439 3.527,-3.105 5,-5 z" id="path334"/>
  </g>
  <g id="g335">
    <path fill="#7cc39b" d="m 94.5,147.5 c 2.6667,0 5.3333,0 8,0 -1.667,0.667 -3.3333,1.333 -5,2 -4.1218,2.262 -8.4552,3.929 -13,5 -9.3333,0 -18.6667,0 -28,0 -0.3417,-0.838 -1.0084,-1.172 -2,-1 0,-0.333 0,-0.667 0,-1 1,0 2,0 3,0 9,0 18,0 27,0 3.3312,-1.663 6.6646,-3.33 10,-5 z" id="path335"/>
  </g>
  <g id="g336">
    <path fill="#2fa161" d="m 89.5,147.5 c -1.473,1.895 -3.1397,3.561 -5,5 -9,0 -18,0 -27,0 -1.6667,-1.333 -3.3333,-2.667 -5,-4 1,0 2,0 3,0 1.1828,1.004 2.5161,1.838 4,2.5 8,0.667 16,0.667 24,0 0.556,-0.383 0.8893,-0.883 1,-1.5 1.6667,-0.667 3.3333,-1.333 5,-2 z" id="path336"/>
  </g>
  <g id="g337">
    <path fill="#d4eade" d="m 97.5,149.5 c 1.6667,0 3.333,0 5,0 -2.255,1.88 -4.9221,2.88 -8,3 0.8065,-1.228 1.8065,-2.228 3,-3 z" id="path337"/>
  </g>
  <g id="g338">
    <path fill="#b8dec8" d="m 97.5,149.5 c -1.1935,0.772 -2.1935,1.772 -3,3 -0.6667,0.667 -1.3333,1.333 -2,2 -2.6667,0 -5.3333,0 -8,0 4.5448,-1.071 8.8782,-2.738 13,-5 z" id="path338"/>
  </g>
  <g id="g339">
    <path fill="#dcefe4" d="m 44.5,151.5 c 1.6958,0.185 3.0291,1.019 4,2.5 2.646,0.497 5.3127,0.664 8,0.5 9.3333,0 18.6667,0 28,0 2.6667,0 5.3333,0 8,0 -1.4516,0.802 -3.1183,1.302 -5,1.5 -13.3708,0.857 -26.7042,0.524 -40,-1 -1.5629,-0.759 -2.5629,-1.926 -3,-3.5 z" id="path339"/>
  </g>
  <g id="g340">
    <path fill="#f4faf7" d="m 42.5,151.5 c 0.6667,0 1.3333,0 2,0 0.4371,1.574 1.4371,2.741 3,3.5 13.2958,1.524 26.6292,1.857 40,1 1.8817,-0.198 3.5484,-0.698 5,-1.5 1.6667,0 3.3333,0 5,0 -0.4175,0.722 -1.0842,1.222 -2,1.5 -8.2648,0.756 -16.4314,1.923 -24.5,3.5 -8.0686,-1.577 -16.2352,-2.744 -24.5,-3.5 -2.6059,-0.45 -3.9392,-1.95 -4,-4.5 z" id="path340"/>
  </g>
</svg>