<?xml version="1.0" encoding="UTF-8" standalone="yes"?>
<svg version="1.2" width="475px" height="475px" fill-rule="evenodd" baseProfile="tiny-ps" xmlns="http://www.w3.org/2000/svg">
  <title>bimi-svg-tiny-12-ps</title>
  <g>
    <path fill="#4bae6c" d="M 218.5,1.5 C 301.047,-2.3989 368.88,26.9344 422,89.5C 472.616,156.594 485.949,230.594 462,311.5C 430.709,396.786 370.709,449.453 282,469.5C 189.908,483.589 113.575,455.589 53,385.5C 2.38429,318.406 -10.949,244.406 13,163.5C 39.1667,89.3333 89.3333,39.1667 163.5,13C 181.61,7.4126 199.943,3.57927 218.5,1.5 Z"/>
  </g>
  <g>
    <path fill="#f9faf9" d="M 213.5,54.5 C 292.556,49.7729 352.723,80.7729 394,147.5C 418.048,191.976 423.382,238.643 410,287.5C 388.718,353.115 344.885,395.282 278.5,414C 201.839,429.561 138.672,407.394 89,347.5C 52.9482,296.895 43.2815,241.561 60,181.5C 86.4941,109.337 137.661,67.0041 213.5,54.5 Z"/>
  </g>
  <g>
    <path fill="#010101" d="M 117.5,140.5 C 195.501,140.333 273.501,140.5 351.5,141C 357.333,142.833 361.167,146.667 363,152.5C 363.667,200.5 363.667,248.5 363,296.5C 360.886,302.56 356.719,306.393 350.5,308C 314.835,308.5 279.168,308.667 243.5,308.5C 243.5,316.5 243.5,324.5 243.5,332.5C 257.837,332.333 272.171,332.5 286.5,333C 293.555,339.099 292.888,344.099 284.5,348C 251.5,348.667 218.5,348.667 185.5,348C 180.076,345.983 178.242,342.15 180,336.5C 181.167,335.333 182.333,334.167 183.5,333C 198.163,332.5 212.83,332.333 227.5,332.5C 227.5,324.5 227.5,316.5 227.5,308.5C 191.498,308.667 155.498,308.5 119.5,308C 113.667,306.167 109.833,302.333 108,296.5C 107.333,247.833 107.333,199.167 108,150.5C 110.022,145.98 113.189,142.647 117.5,140.5 Z"/>
  </g>
  <g>
    <path fill="#646464" d="M 347.5,156.5 C 347.167,156.5 346.833,156.5 346.5,156.5C 272.167,156.5 197.833,156.5 123.5,156.5C 123.5,201.5 123.5,246.5 123.5,291.5C 123.5,291.833 123.5,292.167 123.5,292.5C 122.501,247.003 122.168,201.336 122.5,155.5C 197.669,155.167 272.669,155.501 347.5,156.5 Z"/>
  </g>
  <g>
    <path fill="#fafbfa" d="M 346.5,156.5 C 346.5,201.5 346.5,246.5 346.5,291.5C 272.167,291.5 197.833,291.5 123.5,291.5C 123.5,246.5 123.5,201.5 123.5,156.5C 197.833,156.5 272.167,156.5 346.5,156.5 Z"/>
  </g>
  <g>
    <path fill="#bbbdbb" d="M 346.5,156.5 C 346.833,156.5 347.167,156.5 347.5,156.5C 347.5,201.833 347.5,247.167 347.5,292.5C 272.833,292.5 198.167,292.5 123.5,292.5C 123.5,292.167 123.5,291.833 123.5,291.5C 197.833,291.5 272.167,291.5 346.5,291.5C 346.5,246.5 346.5,201.5 346.5,156.5 Z"/>
  </g>
  <g>
    <path fill="#4cae6d" d="M 280.5,168.5 C 286.996,174.829 293.663,180.995 300.5,187C 270.29,218.375 240.29,249.875 210.5,281.5C 195.345,265.512 179.679,250.012 163.5,235C 169.667,228.833 175.833,222.667 182,216.5C 191.333,225.833 200.667,235.167 210,244.5C 234.095,219.577 257.595,194.244 280.5,168.5 Z"/>
  </g>
</svg>